<svg width="1536" height="192" viewBox="0 0 1536 192" fill="none" xmlns="http://www.w3.org/2000/svg">
<path d="M0 0.0322344L1365.27 0.0645147C1421.17 0.0667652 1480.33 1.06601 1536 0V3.37431V13.1777V13.9504V14.483V37.5811V42.5894V46.9427V50.3058V65.5292V67.7498V78.971V80.4751V93.4466V103.275V117.317V118.837V126.426V138.368V139.75V150.992V153.149V178.554V179.688V185.147V186.866V191.624L0 191.588V186.962V185.138V165.224V164.467V163.547V158.418V153.13V151.001V139.827V138.329V136.821V118.851V117.339V103.25V93.3925V80.4549V78.9785V59.4002V50.4783V46.9974V42.4671V37.789V32.8235V31.5444V30.9173V3.40806V0.0322344Z" fill="#E8EAEC" style="fill:#E8EAEC;fill:color(display-p3 0.9098 0.9176 0.9255);fill-opacity:1;"/>
<path d="M0 0.0322344L1365.27 0.0645147C1421.17 0.0667652 1480.33 1.06601 1536 0V3.37431V13.1777V13.9504V14.483V37.5811V42.5894V46.9427V50.3058V65.5292V67.7498V78.971V80.4751L0 80.4549V78.9785V59.4002V50.4783V46.9974V42.4671V37.789V32.8235V31.5444V30.9173V3.40806V0.0322344Z" fill="#E8EAEC" style="fill:#E8EAEC;fill:color(display-p3 0.9098 0.9176 0.9255);fill-opacity:1;"/>
<path d="M1536 46.9427V50.3058V65.5292V67.7498V78.971V80.4751L0 80.4549V78.9785V59.4002V50.4783V46.9974L1536 46.9427Z" fill="#E8EAEC" style="fill:#E8EAEC;fill:color(display-p3 0.9098 0.9176 0.9255);fill-opacity:1;"/>
<path d="M1536 46.9427V50.3058V65.5292L1533.7 65.662C1530.15 66.3934 1519.91 66.0701 1516.18 65.716C1514.3 66.1406 1511.66 66.6477 1509.88 67.1683L1509.78 59.3807L1464.97 59.3897C1456.73 59.3957 1446.22 59.0919 1438.3 59.7505C1437.46 61.5622 1437.87 64.788 1437.96 66.9366L1431.69 66.1586C1423.01 65.7678 1414.25 66.3934 1405.34 65.815L1404.2 66.0341C1398.52 66.0566 1392.47 65.9726 1386.82 66.1159C1384.99 66.3349 1381.6 66.6365 1379.95 67.1038C1380.1 64.1564 1380.35 62.749 1379.58 59.8668C1375.49 59.1136 1360.78 59.407 1356.01 59.4062L1308.77 59.3882L1309.35 67.0319C1307.88 66.5952 1304.43 66.3334 1302.75 66.1563C1294.4 65.8705 1285.68 66.0844 1277.3 66.1691L1275.73 66.2239C1269.85 65.857 1263.7 66.0784 1257.79 66.1706C1256.07 66.3349 1252.58 66.5615 1251.07 66.9958L1250.9 59.3012C1228.39 59.8038 1203.86 59.5248 1181.32 59.3072L1181.72 66.9951C1180.35 66.5772 1176.84 66.3506 1175.25 66.2014C1166.8 65.89 1157.75 66.0896 1149.23 66.1354L1147.24 66.0649C1141.62 66.1009 1134.54 66.3574 1129.07 65.743L1122.87 67.1766C1122.94 64.4197 1123.21 62.3424 1122.29 59.7573C1117.26 59.1152 1104.05 59.4205 1098.3 59.4212L1053.3 59.3485L1053.45 67.0671L1047.15 65.8443C1042.79 66.2824 1024.51 66.4122 1020.8 65.5397L1020.07 65.626C1016 66.4452 1005.47 66.0964 1001.15 65.7858L995.003 66.9515C995.13 64.0821 995.505 62.0499 994.155 59.7731C989.918 59.0026 976.388 59.3612 971.265 59.3754C955.725 59.4925 940.192 59.4655 924.652 59.296C922.02 59.6553 921.81 59.1924 920.475 60.686C921.428 61.8503 922.328 63.0461 923.198 64.2711C921.735 66.1241 921.907 65.5592 918.93 66.2209C912.3 65.4444 898.418 66.914 892.688 65.527L891.667 65.5727C888.03 66.4369 877.02 66.1219 873.15 65.7085L866.872 67.2764C867.06 64.6298 867.547 62.0439 866.542 59.6981C856.995 58.7873 838.357 59.5675 827.902 59.3995C820.807 59.2855 800.483 59.0537 794.738 59.7236C794.003 62.5142 794.1 64.2816 794.062 67.1173C792.705 66.4969 789.645 66.0596 788.025 65.7558C784.927 66.4587 764.58 66.0979 761.19 65.653L760.133 65.8458C753.758 65.9065 747.383 66.0243 741.012 66.1991C739.679 66.0678 738.535 65.7138 737.243 65.3732C735.727 62.8451 736.214 62.5833 736.167 59.3875L735.575 59.4175L678.627 59.4002C674.048 59.398 657.183 59.0589 653.755 59.7821C652.799 62.3987 653.163 64.4917 653.318 67.2989L647.272 65.755C642.925 66.4219 625.667 66.0911 620.914 65.851L619.429 66.1248C613.187 65.9133 607.489 66.2606 601.097 65.7295C599.18 66.1646 596.494 66.6822 594.676 67.2164C594.805 64.4587 595.084 62.5105 594.183 59.8631C591.151 59.0499 527.637 59.1414 523.552 59.8691C522.43 61.9636 522.864 64.5442 522.965 67.0483L516.856 65.845C512.938 66.4384 492.714 66.1639 488.9 65.6162L488.008 65.5585C483.842 66.5359 474.947 66.0033 470.222 66.1556C468.614 66.3289 465.117 66.6012 463.73 67.0558L463.637 59.431L384.889 59.3545L384.32 59.4062L384.195 64.6905C382.198 66.2074 381.83 65.794 379.067 66.0506C374.325 66.0881 365.023 66.4137 360.771 65.5915L359.878 65.5877C357.093 66.4857 347.977 65.9928 344.849 65.7985C343.043 66.1316 340.145 66.5667 338.479 67.0648L338.383 59.368C315.173 59.7176 291.851 59.1392 268.631 59.3605C262.753 59.4167 256.983 59.1902 251.11 59.6921C249.88 61.6043 250.349 64.5877 250.423 67.0551C248.867 66.6147 245.482 66.3409 243.74 66.1481C235.251 65.9831 226.76 65.9861 218.272 66.1579L217.1 66.4137C210.962 65.7355 204.23 66.0603 198.018 66.1736L191.643 66.8916C191.721 64.5892 192.182 61.5773 190.978 59.8076C186.146 58.9621 160.959 59.302 154.009 59.5323C141.99 59.9299 119.131 58.3995 108.22 59.7168C106.522 61.8623 107.05 64.3319 107.305 67.2516C105.375 66.6545 102.784 66.1601 100.764 65.713C97.1295 66.4902 78.1868 66.0828 74.0875 65.7617L73.1482 66.0123C67.1087 66.0799 61.4048 66.2202 55.3688 65.7775L48.9131 67.0183C49.0158 64.4482 49.3922 62.0191 48.4106 59.7265C40.3553 58.6815 9.69457 59.3897 0 59.4002V50.4783V46.9974L1536 46.9427Z" fill="#3C3C3F" style="fill:#3C3C3F;fill:color(display-p3 0.2353 0.2353 0.2471);fill-opacity:1;"/>
<path d="M1536 46.9427V50.3058L0 50.4783V46.9974L1536 46.9427Z" fill="#515152" style="fill:#515152;fill:color(display-p3 0.3176 0.3176 0.3216);fill-opacity:1;"/>
<path d="M488.9 65.6162C489.003 62.458 488.446 61.9186 490.184 59.9524C493.412 58.7716 514.136 58.8864 516.438 59.9052C516.627 61.9524 516.802 63.782 516.856 65.845C512.938 66.4384 492.714 66.1639 488.9 65.6162Z" fill="#E8EAEC" style="fill:#E8EAEC;fill:color(display-p3 0.9098 0.9176 0.9255);fill-opacity:1;"/>
<path d="M761.19 65.653C761.243 63.8008 761.01 60.7265 762.06 59.4392C766.005 59.2322 784.155 58.8908 787.477 59.8045C788.257 62.3694 788.1 63.0108 788.025 65.7558C784.927 66.4587 764.58 66.0979 761.19 65.653Z" fill="#E8EAEC" style="fill:#E8EAEC;fill:color(display-p3 0.9098 0.9176 0.9255);fill-opacity:1;"/>
<path d="M1405.34 65.815C1405.38 64.1451 1405.19 60.6853 1406.02 59.4895C1410.65 59.2195 1427.06 58.9824 1431.46 59.7011C1432.03 62.3395 1431.84 63.506 1431.69 66.1586C1423.01 65.7678 1414.25 66.3934 1405.34 65.815Z" fill="#E8EAEC" style="fill:#E8EAEC;fill:color(display-p3 0.9098 0.9176 0.9255);fill-opacity:1;"/>
<path d="M74.0875 65.7617L74.3623 60.1384C76.2592 58.5968 96.588 58.5923 99.8235 60.4122C101.018 62.1017 100.751 63.5352 100.764 65.713C97.1295 66.4902 78.1868 66.0828 74.0875 65.7617Z" fill="#E8EAEC" style="fill:#E8EAEC;fill:color(display-p3 0.9098 0.9176 0.9255);fill-opacity:1;"/>
<path d="M1149.23 66.1354C1149.11 64.2562 1148.64 61.1294 1149.42 59.6035C1153.41 59.3402 1171.35 58.8578 1174.87 59.6553C1175.47 62.473 1175.39 63.3837 1175.25 66.2014C1166.8 65.89 1157.75 66.0896 1149.23 66.1354Z" fill="#E8EAEC" style="fill:#E8EAEC;fill:color(display-p3 0.9098 0.9176 0.9255);fill-opacity:1;"/>
<path d="M620.914 65.851L621.091 60.0844C622.898 58.7288 644.144 59.1091 646.932 59.8263C647.081 61.8 647.194 63.7768 647.272 65.755C642.925 66.4219 625.667 66.0911 620.914 65.851Z" fill="#E8EAEC" style="fill:#E8EAEC;fill:color(display-p3 0.9098 0.9176 0.9255);fill-opacity:1;"/>
<path d="M1020.8 65.5397C1020.98 62.3072 1020.42 61.9178 1022.24 59.9261C1026.19 58.5067 1044.94 59.0258 1046.72 59.7265C1047.19 62.2921 1047.18 63.2247 1047.15 65.8443C1042.79 66.2824 1024.51 66.4122 1020.8 65.5397Z" fill="#E8EAEC" style="fill:#E8EAEC;fill:color(display-p3 0.9098 0.9176 0.9255);fill-opacity:1;"/>
<path d="M1277.3 66.1691C1277.26 64.1654 1276.85 61.0709 1277.65 59.56C1281.77 59.2629 1298.53 58.9366 1302.57 59.5398C1303.21 61.9471 1302.91 63.6755 1302.75 66.1563C1294.4 65.8705 1285.68 66.0844 1277.3 66.1691Z" fill="#E8EAEC" style="fill:#E8EAEC;fill:color(display-p3 0.9098 0.9176 0.9255);fill-opacity:1;"/>
<path d="M218.272 66.1579C218.197 62.9148 217.622 62.3777 219.21 60.0634C222.273 58.6681 241.492 58.7873 243.623 59.8773C243.886 62.53 243.947 63.4985 243.74 66.1481C235.251 65.9831 226.76 65.9861 218.272 66.1579Z" fill="#E8EAEC" style="fill:#E8EAEC;fill:color(display-p3 0.9098 0.9176 0.9255);fill-opacity:1;"/>
<path d="M892.688 65.527C892.988 62.1609 892.41 61.9831 894.39 59.8818C898.403 58.518 916.552 59.0821 918.36 59.9291L918.93 66.2209C912.3 65.4444 898.418 66.914 892.688 65.527Z" fill="#E8EAEC" style="fill:#E8EAEC;fill:color(display-p3 0.9098 0.9176 0.9255);fill-opacity:1;"/>
<path d="M198.018 66.1736C197.941 63.9666 197.556 61.2172 198.536 59.365C201.418 59.2802 215.16 58.7903 216.72 60.0994C216.871 62.2029 216.997 64.3079 217.1 66.4137C210.962 65.7355 204.23 66.0603 198.018 66.1736Z" fill="#E8EAEC" style="fill:#E8EAEC;fill:color(display-p3 0.9098 0.9176 0.9255);fill-opacity:1;"/>
<path d="M741.012 66.1991L741.292 60.0304C742.831 58.7904 756.345 59.2262 758.992 59.3657C760.335 61.3334 759.96 63.1204 760.133 65.8458C753.758 65.9065 747.383 66.0243 741.012 66.1991Z" fill="#E8EAEC" style="fill:#E8EAEC;fill:color(display-p3 0.9098 0.9176 0.9255);fill-opacity:1;"/>
<path d="M1001.15 65.7858C1001.21 63.4055 1000.82 61.0971 1002.02 59.5382C1005.11 59.3424 1017.25 58.7716 1019.74 59.8331C1020.06 62.2344 1020.14 63.2089 1020.07 65.626C1016 66.4452 1005.47 66.0964 1001.15 65.7858Z" fill="#E8EAEC" style="fill:#E8EAEC;fill:color(display-p3 0.9098 0.9176 0.9255);fill-opacity:1;"/>
<path d="M601.097 65.7295C601.024 63.5952 600.503 61.0259 601.507 59.611C604.204 59.4032 616.968 58.7363 619.128 59.6185C619.667 62.434 619.589 63.2404 619.429 66.1248C613.187 65.9133 607.489 66.2606 601.097 65.7295Z" fill="#E8EAEC" style="fill:#E8EAEC;fill:color(display-p3 0.9098 0.9176 0.9255);fill-opacity:1;"/>
<path d="M873.15 65.7085L873.27 60.0889C875.28 58.6988 887.85 59.2517 890.625 59.4108L891.503 60.1129C891.563 61.9081 891.652 63.7858 891.667 65.5727C888.03 66.4369 877.02 66.1219 873.15 65.7085Z" fill="#E8EAEC" style="fill:#E8EAEC;fill:color(display-p3 0.9098 0.9176 0.9255);fill-opacity:1;"/>
<path d="M1257.79 66.1706C1257.66 63.8391 1257.19 61.2292 1258.21 59.2944C1261.03 59.1497 1274.01 58.7453 1275.74 60.0792C1275.82 62.2862 1275.89 63.9883 1275.73 66.2239C1269.85 65.857 1263.7 66.0784 1257.79 66.1706Z" fill="#E8EAEC" style="fill:#E8EAEC;fill:color(display-p3 0.9098 0.9176 0.9255);fill-opacity:1;"/>
<path d="M1129.07 65.743C1129.12 63.4175 1128.65 60.8526 1129.91 59.5953C1132.75 59.3883 1145.17 58.6125 1147.23 59.9126C1147.51 62.6395 1147.58 63.3567 1147.24 66.0649C1141.62 66.1009 1134.54 66.3574 1129.07 65.743Z" fill="#E8EAEC" style="fill:#E8EAEC;fill:color(display-p3 0.9098 0.9176 0.9255);fill-opacity:1;"/>
<path d="M360.771 65.5915L360.94 60.0709C363.168 58.6973 374.958 59.2674 377.968 59.4362L378.796 60.1174C378.916 62.1114 379.054 64.0506 379.067 66.0506C374.325 66.0881 365.023 66.4137 360.771 65.5915Z" fill="#E8EAEC" style="fill:#E8EAEC;fill:color(display-p3 0.9098 0.9176 0.9255);fill-opacity:1;"/>
<path d="M470.222 66.1556C469.977 63.7115 469.757 63.0379 470.373 60.7258C473.28 57.9381 482.735 59.245 487.778 59.245L488.008 65.5585C483.842 66.5359 474.947 66.0033 470.222 66.1556Z" fill="#E8EAEC" style="fill:#E8EAEC;fill:color(display-p3 0.9098 0.9176 0.9255);fill-opacity:1;"/>
<path d="M55.3688 65.7775L55.5811 60.0762C57.2432 58.6156 69.3927 59.3327 71.9845 59.5L72.7278 60.1182C72.8826 62.0612 73.0735 64.0709 73.1482 66.0123C67.1087 66.0799 61.4048 66.2202 55.3688 65.7775Z" fill="#E8EAEC" style="fill:#E8EAEC;fill:color(display-p3 0.9098 0.9176 0.9255);fill-opacity:1;"/>
<path d="M1386.82 66.1159C1386.61 63.4055 1386.59 62.5142 1386.89 59.8173C1389.8 58.7025 1400.29 59.2681 1403.54 59.6057C1404.19 60.71 1404.13 64.47 1404.2 66.0341C1398.52 66.0566 1392.47 65.9726 1386.82 66.1159Z" fill="#E8EAEC" style="fill:#E8EAEC;fill:color(display-p3 0.9098 0.9176 0.9255);fill-opacity:1;"/>
<path d="M1516.18 65.716L1516.58 60.1122C1518.25 58.7251 1530.26 59.3687 1532.91 59.5098L1533.56 60.0634L1533.7 65.662C1530.15 66.3934 1519.91 66.0701 1516.18 65.716Z" fill="#E8EAEC" style="fill:#E8EAEC;fill:color(display-p3 0.9098 0.9176 0.9255);fill-opacity:1;"/>
<path d="M344.849 65.7985C344.938 62.518 344.37 61.9689 346.13 59.8121C349.052 58.4738 355.807 59.2607 359.606 59.2705L359.878 65.5877C357.093 66.4857 347.977 65.9928 344.849 65.7985Z" fill="#E8EAEC" style="fill:#E8EAEC;fill:color(display-p3 0.9098 0.9176 0.9255);fill-opacity:1;"/>
<path d="M0 78.9785L1536 78.971V80.4751L0 80.4549V78.9785Z" fill="#515152" style="fill:#515152;fill:color(display-p3 0.3176 0.3176 0.3216);fill-opacity:1;"/>
<path d="M918.93 66.2209C921.907 65.5592 921.735 66.1241 923.198 64.2711C922.328 63.0461 921.428 61.8503 920.475 60.686C921.81 59.1924 922.02 59.6553 924.652 59.296C924.735 62.1932 925.147 64.8023 923.91 67.3154C919.53 68.0003 871.582 68.1886 866.872 67.2764L873.15 65.7085C877.02 66.1219 888.03 66.4369 891.667 65.5727L892.688 65.527C898.418 66.914 912.3 65.4444 918.93 66.2209Z" fill="black" style="fill:black;fill-opacity:1;"/>
<path d="M735.575 59.4175L736.167 59.3875C736.214 62.5833 735.727 62.8451 737.243 65.3732C738.535 65.7138 739.679 66.0678 741.012 66.1991C747.383 66.0243 753.758 65.9065 760.133 65.8458L761.19 65.653C764.58 66.0979 784.927 66.4587 788.025 65.7558C789.645 66.0596 792.705 66.4969 794.062 67.1173C789 68.3536 744.086 67.8158 735.187 67.7925C734.981 64.0829 735.027 63.0919 735.575 59.4175Z" fill="black" style="fill:black;fill-opacity:1;"/>
<path d="M488.008 65.5585L488.9 65.6162C492.714 66.1639 512.938 66.4384 516.856 65.845L522.965 67.0483C520.426 68.1331 467.063 68.3154 463.73 67.0558C465.117 66.6012 468.614 66.3289 470.222 66.1556C474.947 66.0033 483.842 66.5359 488.008 65.5585Z" fill="black" style="fill:black;fill-opacity:1;"/>
<path d="M1020.8 65.5397C1024.51 66.4122 1042.79 66.2824 1047.15 65.8443L1053.45 67.0671C1050.1 68.2772 997.598 68.2749 995.003 66.9515L1001.15 65.7858C1005.47 66.0964 1016 66.4452 1020.07 65.626L1020.8 65.5397Z" fill="black" style="fill:black;fill-opacity:1;"/>
<path d="M55.3688 65.7775C61.4048 66.2202 67.1087 66.0799 73.1482 66.0123L74.0875 65.7617C78.1868 66.0828 97.1295 66.4902 100.764 65.713C102.784 66.1601 105.375 66.6545 107.305 67.2516C102.685 68.2854 51.926 68.1399 48.9131 67.0183L55.3688 65.7775Z" fill="black" style="fill:black;fill-opacity:1;"/>
<path d="M647.272 65.755L653.318 67.2989C647.632 68.4302 601.484 68.4384 594.676 67.2164C596.494 66.6822 599.18 66.1646 601.097 65.7295C607.489 66.2606 613.187 65.9133 619.429 66.1248L620.914 65.851C625.667 66.0911 642.925 66.4219 647.272 65.755Z" fill="black" style="fill:black;fill-opacity:1;"/>
<path d="M1129.07 65.743C1134.54 66.3574 1141.62 66.1009 1147.24 66.0649L1149.23 66.1354C1157.75 66.0896 1166.8 65.89 1175.25 66.2014C1176.84 66.3506 1180.35 66.5772 1181.72 66.9951C1178.47 68.2419 1128.06 68.2974 1122.87 67.1766L1129.07 65.743Z" fill="black" style="fill:black;fill-opacity:1;"/>
<path d="M1404.2 66.0341L1405.34 65.815C1414.25 66.3934 1423.01 65.7678 1431.69 66.1586L1437.96 66.9366C1435.27 68.2764 1384.25 68.3371 1379.95 67.1038C1381.6 66.6365 1384.99 66.3349 1386.82 66.1159C1392.47 65.9726 1398.52 66.0566 1404.2 66.0341Z" fill="black" style="fill:black;fill-opacity:1;"/>
<path d="M198.018 66.1736C204.23 66.0603 210.962 65.7355 217.1 66.4137L218.272 66.1579C226.76 65.9861 235.251 65.9831 243.74 66.1481C245.482 66.3409 248.867 66.6147 250.423 67.0551C246.44 68.4159 193.905 68.2494 191.643 66.8916L198.018 66.1736Z" fill="black" style="fill:black;fill-opacity:1;"/>
<path d="M1257.79 66.1706C1263.7 66.0784 1269.85 65.857 1275.73 66.2239L1277.3 66.1691C1285.68 66.0844 1294.4 65.8705 1302.75 66.1563C1304.43 66.3334 1307.88 66.5952 1309.35 67.0319C1305.85 68.2089 1255.49 68.3979 1251.07 66.9958C1252.58 66.5615 1256.07 66.3349 1257.79 66.1706Z" fill="black" style="fill:black;fill-opacity:1;"/>
<path d="M379.067 66.0506C381.83 65.794 382.198 66.2074 384.195 64.6905L384.32 59.4062L384.889 59.3545C385.496 63.0641 385.564 63.9974 385.372 67.746C379.325 67.785 342.328 68.4932 338.479 67.0648C340.145 66.5667 343.043 66.1316 344.849 65.7985C347.977 65.9928 357.093 66.4857 359.878 65.5877L360.771 65.5915C365.023 66.4137 374.325 66.0881 379.067 66.0506Z" fill="black" style="fill:black;fill-opacity:1;"/>
<path d="M1533.7 65.662L1536 65.5292V67.7498C1530.05 67.8075 1515.05 68.2719 1509.88 67.1683C1511.66 66.6477 1514.3 66.1406 1516.18 65.716C1519.91 66.0701 1530.15 66.3934 1533.7 65.662Z" fill="black" style="fill:black;fill-opacity:1;"/>
<path d="M338.443 13.0554C353.869 12.9091 370.079 12.7118 385.488 13.0839L385.524 31.1911C410.499 31.0928 439.204 30.4777 463.88 31.3246L463.872 13.0044L522.877 12.9984L522.865 31.2946C536.797 32.3839 555.034 31.2999 569.407 31.7117C573.824 31.8385 591.729 31.837 594.709 31.4266L594.697 12.9579H653.207L653.234 31.2504C679.04 31.1513 709.51 30.4034 734.949 31.3944C734.966 25.4815 734.834 18.8746 735.014 13.0239L794.265 13.0472L794.295 31.1836C817.365 31.1656 844.313 30.5144 867.068 31.3134L867 13.0044C885.96 12.9781 906.03 12.6181 924.907 13.0772L924.878 31.2781C946.935 31.1408 973.133 30.5662 994.958 31.3284C995.73 27.9173 995.213 17.5137 995.07 13.5985C997.568 12.2895 1047.13 13.0351 1053.25 13.1357C1053.21 16.1049 1052.87 29.0283 1053.25 31.1619C1076.17 31.1521 1099.91 30.8332 1122.76 31.3959L1122.77 13.1282C1140.01 12.7013 1164.66 12.42 1181.66 13.264C1181.36 16.9249 1180.95 27.9938 1181.58 31.4732C1194.84 32.3539 1211.61 31.3539 1225.3 31.7012C1230.08 31.8228 1247.6 31.924 1250.92 31.4882L1250.95 12.9684C1259.19 13.0029 1304.3 11.9984 1308.87 13.612C1308.8 19.1356 1308.52 25.7478 1309.12 31.1506C1332.73 31.0823 1356.33 31.1491 1379.93 31.3524L1379.95 13.0292C1399.26 12.9279 1418.57 12.9474 1437.88 13.0869L1437.85 31.3854C1457.34 30.2091 1489.55 31.0838 1509.75 31.3764L1509.82 13.0292C1518.54 12.8634 1527.28 12.9136 1536 13.1777V13.9504V14.483V37.5811V42.5894V46.9427L0 46.9974V42.4671V37.789V32.8235V31.5444C13.5585 31.8152 35.7268 32.2654 48.8481 31.5549C48.9007 25.5977 48.8051 18.9113 49.0293 13.0201L106.98 13.0157C107.12 19.1034 107.177 25.1926 107.149 31.2819C124.888 32.2856 144.878 31.4019 162.751 31.7012C167.351 31.7778 188.156 31.9833 191.917 31.4574C191.924 25.5887 191.792 18.8716 192.033 13.0667C210.721 12.9204 231.635 12.567 250.298 13.0277C250.456 19.2527 250.556 25.0509 250.439 31.2789C269.466 32.4747 291.499 31.1964 310.757 31.7035C313.735 31.7822 336.353 31.8422 338.348 31.4777C338.355 25.5805 338.218 18.8791 338.443 13.0554Z" fill="#515152" style="fill:#515152;fill:color(display-p3 0.3176 0.3176 0.3216);fill-opacity:1;"/>
<path d="M1147.45 36.978L1148.7 36.843C1151.86 38.9225 1170.13 37.3643 1175.8 38.0185L1176.56 37.7409C1200.82 37.5196 1225.54 38.2668 1249.82 37.5219C1249.82 37.5219 1251.47 36.4664 1251.63 36.3591L1252.36 36.4821C1255.33 38.8887 1271.54 37.5429 1276.55 37.8947L1277.01 37.7635C1284.07 37.7785 1296.86 37.3913 1303.45 37.921L1304.04 37.8077L1308.45 37.9787L1309.04 37.7837L1372.65 37.7492C1380.61 37.744 1396.19 38.2353 1403.56 37.6569C1407.73 38.7687 1503.23 39.0215 1508.88 37.8385L1510.21 37.8017L1511.18 37.7642L1515.03 37.7154L1516.13 38.1295C1523.1 37.4994 1529.31 37.9487 1536 37.5811V42.5894V46.9427L0 46.9974V42.4671V37.789C15.6183 37.7807 34.3449 37.2578 49.6991 37.846L50.2564 37.7349C59.648 37.7132 93.6323 37.0793 100.844 38.1183L101.945 37.8265L105.745 37.6914L106.367 37.8265L198.213 37.7657C210.794 37.7679 233.425 38.4251 245.439 37.5811L248.81 37.5722C274.106 38.4476 299.893 37.3681 325.234 37.7792C329.865 37.8542 335.319 37.8602 339.931 37.5174L344.083 37.6179C349.337 37.7312 354.592 37.7995 359.848 37.8235L360.719 37.7042C365.32 37.7372 375.577 37.5804 379.664 38.122L380.36 37.8444C405.343 36.6689 438.803 37.7627 464.597 37.7102L464.841 37.7177L468.857 37.7319L469.82 38.1115C475.757 37.6952 516.687 37.2211 521.746 38.2398L523.441 37.7117C543.874 37.7492 575.756 36.732 595.212 37.9L595.848 37.8309L599.87 37.6884C604.249 37.7207 616.156 37.5556 619.9 38.1003L620.942 37.7499C629.334 37.7739 639.975 38.0928 648.185 37.5429L651.55 37.5309C677.922 39.0433 708.705 36.8962 735.722 37.9428L736.528 37.6607L739.541 37.7447L741.283 38.2533C747.251 37.4709 782.048 37.4094 788.19 37.9277L788.812 37.7432L793.312 37.972L793.875 37.7664L867.398 37.7455L868.193 38.083L872.31 37.6389L873.098 37.8444C880.913 37.6922 919.035 38.4393 923.767 37.245L924.383 37.0928C930.173 38.9315 986.422 37.8625 995.542 37.6862L995.872 37.6959L1020.23 37.7312L1020.73 37.8962L1048.67 37.6704L1052.54 38.0935L1053.24 37.8309L1123.18 37.7739L1123.74 38.05L1127.83 37.6539C1132.29 37.7905 1143.8 38.4079 1147.45 36.978Z" fill="#3C3C3F" style="fill:#3C3C3F;fill:color(display-p3 0.2353 0.2353 0.2471);fill-opacity:1;"/>
<path d="M0 42.4671L1536 42.5894V46.9427L0 46.9974V42.4671Z" fill="#95969A" style="fill:#95969A;fill:color(display-p3 0.5843 0.5882 0.6039);fill-opacity:1;"/>
<path d="M218.188 14.5453C226.631 14.6938 235.386 14.5633 243.856 14.5498C243.786 19.0081 242.81 34.3119 245.114 37.2503L245.439 37.5811C233.425 38.4251 210.794 37.7679 198.213 37.7657L106.367 37.8265C106.765 35.7582 106.742 35.5069 107.792 33.7297C115.1 30.4582 179.035 33.6637 191.178 33.4319C191.923 33.4177 192.206 36.3119 192.349 37.0388C194.765 32.816 190.119 18.9804 194.654 14.2985L195.804 14.7381C197.842 20.8258 195.391 30.2534 196.729 36.7755L197.358 36.4889C198.878 32.1468 198.092 19.648 197.98 14.579L216.818 14.5468C216.75 18.8363 216.427 31.7763 217.667 35.5032C218.332 28.1626 218.239 21.9196 218.188 14.5453Z" fill="#E8EAEC" style="fill:#E8EAEC;fill:color(display-p3 0.9098 0.9176 0.9255);fill-opacity:1;"/>
<path d="M1431.73 14.57C1431.66 21.8123 1431.46 28.2316 1432.34 35.4311L1432.72 35.1528C1432.89 31.3696 1432.65 16.612 1434.01 14.7441L1434.88 14.348C1437.58 16.8611 1436.37 33.2075 1436.32 37.6846L1403.56 37.6569C1396.19 38.2353 1380.61 37.744 1372.65 37.7492L1309.04 37.7837C1308.85 34.5684 1308.4 35.2773 1309.87 33.1363C1313.88 31.981 1371.83 32.5894 1379 32.9607C1380.15 34.1198 1380.11 35.1941 1380.38 36.8295L1381.21 37.005C1382.05 31.5647 1380.49 17.9683 1382.45 15.0209L1383.95 14.447C1387.15 18.618 1383.85 31.2736 1385.63 36.2848L1386.45 35.867C1387.15 29.7987 1386.83 20.9091 1386.77 14.5805L1403.95 14.5865C1403.89 21.4965 1403.62 28.1671 1404.66 35.0057L1405.09 34.7402C1405.51 27.5662 1405.64 21.8018 1405.54 14.618L1431.73 14.57Z" fill="#E8EAEC" style="fill:#E8EAEC;fill:color(display-p3 0.9098 0.9176 0.9255);fill-opacity:1;"/>
<path d="M488.931 14.5438C498.164 14.6278 507.399 14.6211 516.632 14.525C516.502 22.0006 516.672 28.4544 516.992 35.9315L517.377 35.867C517.772 32.5909 518.239 15.5978 518.687 14.8319L521.54 14.2422C522.563 20.7148 520.953 31.99 522.66 36.6344L523.441 37.7117L521.746 38.2398C516.687 37.2211 475.757 37.6952 469.82 38.1115C470.528 31.9645 470.224 21.1379 470.215 14.6045L487.881 14.5588C487.789 17.3382 487.229 33.6382 488.585 35.1603C489.246 28.4064 489 21.3487 488.931 14.5438Z" fill="#E8EAEC" style="fill:#E8EAEC;fill:color(display-p3 0.9098 0.9176 0.9255);fill-opacity:1;"/>
<path d="M521.54 14.2422C522.563 20.7148 520.953 31.99 522.66 36.6344L523.441 37.7117L521.746 38.2398C520.873 31.2789 521.201 21.2489 521.54 14.2422Z" fill="#95969A" style="fill:#95969A;fill:color(display-p3 0.5843 0.5882 0.6039);fill-opacity:1;"/>
<path d="M873.165 14.5963L891.637 14.5453C891.592 17.432 891.097 33.951 892.605 35.5429C893.272 27.9023 893.34 22.3202 892.695 14.618L918.517 14.6008C918.465 18.9233 917.692 34.0553 919.552 36.6809C919.627 29.9593 919.223 20.5257 919.92 14.2167L922.282 14.8176C924.615 18.9436 922.432 31.1611 923.767 37.245C919.035 38.4393 880.913 37.6922 873.098 37.8444L872.31 37.6389L872.535 36.7845C873.487 32.2609 872.887 20.3704 873.165 14.5963Z" fill="#E8EAEC" style="fill:#E8EAEC;fill:color(display-p3 0.9098 0.9176 0.9255);fill-opacity:1;"/>
<path d="M872.535 36.7845C873.487 32.2609 872.887 20.3704 873.165 14.5963C873.78 18.8018 874.493 34.4574 873.098 37.8444L872.31 37.6389L872.535 36.7845Z" fill="#95969A" style="fill:#95969A;fill:color(display-p3 0.5843 0.5882 0.6039);fill-opacity:1;"/>
<path d="M919.552 36.6809C919.627 29.9593 919.223 20.5257 919.92 14.2167C920.243 19.366 920.955 32.1221 919.552 36.6809Z" fill="#95969A" style="fill:#95969A;fill:color(display-p3 0.5843 0.5882 0.6039);fill-opacity:1;"/>
<path d="M74.2316 14.555C82.926 14.5648 91.779 14.6653 100.458 14.5618C100.412 20.846 100.06 32.3636 100.844 38.1183C93.6323 37.0793 59.648 37.7132 50.2564 37.7349C50.3449 33.5857 50.0691 16.7673 51.7992 14.6286C55.0084 16.4395 54.6595 31.1318 54.8398 35.3779C55.7825 32.852 55.6038 18.0636 55.555 14.6495L72.8653 14.5903C72.8141 21.84 72.6577 28.2519 73.4438 35.4664C74.6287 31.3291 74.3072 19.1897 74.2316 14.555Z" fill="#E8EAEC" style="fill:#E8EAEC;fill:color(display-p3 0.9098 0.9176 0.9255);fill-opacity:1;"/>
<path d="M761.265 14.591C770.018 14.5768 779.017 14.6743 787.74 14.5107C787.77 19.4297 787.545 33.7935 788.19 37.9277C782.048 37.4094 747.251 37.4709 741.283 38.2533L739.541 37.7447L740.315 36.6539C741.655 34.0508 740.996 19.0786 741.296 14.5828L759.953 14.5805C759.885 17.4965 759.375 33.9345 760.867 35.5414C761.362 27.8392 761.453 22.3134 761.265 14.591Z" fill="#E8EAEC" style="fill:#E8EAEC;fill:color(display-p3 0.9098 0.9176 0.9255);fill-opacity:1;"/>
<path d="M740.315 36.6539C741.655 34.0508 740.996 19.0786 741.296 14.5828C741.919 19.9091 742.128 33.0043 741.283 38.2533L739.541 37.7447L740.315 36.6539Z" fill="#95969A" style="fill:#95969A;fill:color(display-p3 0.5843 0.5882 0.6039);fill-opacity:1;"/>
<path d="M1149.01 14.5858C1157.67 14.5798 1166.54 14.6773 1175.19 14.5483C1175.18 19.7568 1174.91 33.6862 1175.8 38.0185C1170.13 37.3643 1151.86 38.9225 1148.7 36.843C1149.37 30.3569 1149.13 21.3165 1149.01 14.5858Z" fill="#E8EAEC" style="fill:#E8EAEC;fill:color(display-p3 0.9098 0.9176 0.9255);fill-opacity:1;"/>
<path d="M1021.13 14.5701L1047.01 14.5528C1046.96 19.6113 1046.65 31.705 1047.34 36.1963L1048.28 36.6892L1048.67 37.6704L1020.73 37.8962C1021.47 34.0628 1021.16 19.2767 1021.13 14.5701Z" fill="#E8EAEC" style="fill:#E8EAEC;fill:color(display-p3 0.9098 0.9176 0.9255);fill-opacity:1;"/>
<path d="M621.035 14.5985L646.901 14.5655C646.777 19.1559 645.96 33.7462 647.875 37.2864L648.185 37.5429C639.975 38.0928 629.334 37.7739 620.942 37.7499C621.243 30.4717 621.038 21.9691 621.035 14.5985Z" fill="#E8EAEC" style="fill:#E8EAEC;fill:color(display-p3 0.9098 0.9176 0.9255);fill-opacity:1;"/>
<path d="M1277.18 14.5985L1302.75 14.5453C1302.74 19.0201 1302.42 34.6757 1303.45 37.921C1296.86 37.3913 1284.07 37.7785 1277.01 37.7635C1277.23 30.0433 1277.28 22.3202 1277.18 14.5985Z" fill="#E8EAEC" style="fill:#E8EAEC;fill:color(display-p3 0.9098 0.9176 0.9255);fill-opacity:1;"/>
<path d="M1001.29 14.615C1007.51 14.5963 1013.82 14.6368 1020.02 14.5438C1020.04 21.9683 1019.87 30.3936 1020.23 37.7312L995.872 37.6959C995.88 32.6787 994.935 17.9466 997.523 14.5235L999.082 14.5505L997.942 14.1987L999.337 15.1124C1000.68 22.2346 999.255 29.4972 1000.45 35.6697C1001.68 30.4424 1001.37 20.2797 1001.29 14.615Z" fill="#E8EAEC" style="fill:#E8EAEC;fill:color(display-p3 0.9098 0.9176 0.9255);fill-opacity:1;"/>
<path d="M1257.6 14.6263L1275.81 14.5355C1275.77 19.3795 1275.39 34.1911 1276.55 37.8947C1271.54 37.5429 1255.33 38.8887 1252.36 36.4821C1252.6 31.6487 1251.99 17.7178 1253.54 15.1297L1254.96 14.501C1256.9 17.4612 1255.93 30.3014 1257.07 35.7987C1257.93 28.588 1257.78 21.8761 1257.6 14.6263Z" fill="#E8EAEC" style="fill:#E8EAEC;fill:color(display-p3 0.9098 0.9176 0.9255);fill-opacity:1;"/>
<path d="M380.36 37.8444C380.396 30.4574 380.375 23.0696 380.297 15.6825L381.304 14.7141L383.109 14.9511C386.353 19.8423 381.687 33.2601 384.798 36.5249C385.611 35.3434 385.769 34.8377 386.327 33.5347C389.891 31.9623 453.496 32.834 462.445 32.8152L463.938 33.6794C464.179 35.0223 464.441 36.3554 464.597 37.7102C438.803 37.7627 405.343 36.6689 380.36 37.8444Z" fill="#E8EAEC" style="fill:#E8EAEC;fill:color(display-p3 0.9098 0.9176 0.9255);fill-opacity:1;"/>
<path d="M1516.51 14.1755C1521.09 13.0742 1530.57 14.0014 1536 13.9504V14.483V37.5811C1529.31 37.9487 1523.1 37.4994 1516.13 38.1295C1516.89 32.0673 1516.55 20.6803 1516.51 14.1755Z" fill="#E8EAEC" style="fill:#E8EAEC;fill:color(display-p3 0.9098 0.9176 0.9255);fill-opacity:1;"/>
<path d="M1516.51 14.1755C1521.09 13.0742 1530.57 14.0014 1536 13.9504V14.483C1533.7 18.4755 1535.72 30.0043 1534.37 35.5857C1533.14 29.2226 1533.51 21.0539 1533.71 14.4913C1528.04 14.5595 1522.13 14.7974 1516.51 14.1755Z" fill="#3C3C3F" style="fill:#3C3C3F;fill:color(display-p3 0.2353 0.2353 0.2471);fill-opacity:1;"/>
<path d="M249.146 37.2645C250.295 35.8557 250.507 35.2301 251.002 33.4814C252.71 32.4236 330.187 32.4701 337.32 33.071C338.274 34.5767 338.597 36.4071 339.641 37.2893L339.931 37.5174C335.319 37.8602 329.865 37.8542 325.234 37.7792C299.893 37.3681 274.106 38.4476 248.81 37.5722L249.146 37.2645Z" fill="#E8EAEC" style="fill:#E8EAEC;fill:color(display-p3 0.9098 0.9176 0.9255);fill-opacity:1;"/>
<path d="M1128.97 14.5528C1135.1 14.561 1141.32 14.6278 1147.43 14.567L1147.45 36.978C1143.8 38.4079 1132.29 37.7905 1127.83 37.6539L1128.06 37.2691L1128.13 36.0545C1129.32 29.3246 1128.42 21.7523 1128.97 14.5528Z" fill="#E8EAEC" style="fill:#E8EAEC;fill:color(display-p3 0.9098 0.9176 0.9255);fill-opacity:1;"/>
<path d="M1128.13 36.0545C1129.32 29.3246 1128.42 21.7523 1128.97 14.5528C1129.53 19.366 1130.72 33.5407 1128.06 37.2691L1128.13 36.0545Z" fill="#95969A" style="fill:#95969A;fill:color(display-p3 0.5843 0.5882 0.6039);fill-opacity:1;"/>
<path d="M601.036 14.6045C607.123 14.585 613.393 14.6391 619.461 14.5093C619.432 20.8483 619.112 32.2173 619.9 38.1003C616.156 37.5556 604.249 37.7207 599.87 37.6884L599.902 37.1513L600.876 36.4604C600.448 33.1431 600.788 18.0846 601.036 14.6045Z" fill="#E8EAEC" style="fill:#E8EAEC;fill:color(display-p3 0.9098 0.9176 0.9255);fill-opacity:1;"/>
<path d="M600.876 36.4604C600.448 33.1431 600.788 18.0846 601.036 14.6045C601.558 19.0576 602.113 32.5069 600.876 36.4604Z" fill="#95969A" style="fill:#95969A;fill:color(display-p3 0.5843 0.5882 0.6039);fill-opacity:1;"/>
<path d="M1176.56 37.7409C1176.84 32.1723 1175.8 18.6053 1177.64 14.5956L1179.04 14.6765C1181.2 17.9218 1179.75 30.6532 1180.55 36.6592L1181.28 37.0215C1181.81 34.4784 1181.36 34.5256 1182.89 33.0403C1189.49 31.8888 1240.58 32.8542 1250 33.3358C1250.93 33.3839 1251.2 35.107 1251.63 36.3591C1251.47 36.4664 1249.82 37.5219 1249.82 37.5219C1225.54 38.2668 1200.82 37.5196 1176.56 37.7409Z" fill="#E8EAEC" style="fill:#E8EAEC;fill:color(display-p3 0.9098 0.9176 0.9255);fill-opacity:1;"/>
<path d="M360.802 14.5805L378.88 14.594C378.835 20.2024 378.407 33.4206 379.664 38.122C375.577 37.5804 365.32 37.7372 360.719 37.7042L360.454 36.7755C361.182 30.3096 360.98 21.2422 360.802 14.5805Z" fill="#E8EAEC" style="fill:#E8EAEC;fill:color(display-p3 0.9098 0.9176 0.9255);fill-opacity:1;"/>
<path d="M651.938 37.3028L652.396 36.5017C653.057 35.3299 653.406 34.4282 653.891 33.1881C658.907 31.8753 726.556 32.3171 733.761 32.9488C735.282 34.3884 735.288 35.7905 735.722 37.9428C708.705 36.8962 677.922 39.0433 651.55 37.5309L651.938 37.3028Z" fill="#E8EAEC" style="fill:#E8EAEC;fill:color(display-p3 0.9098 0.9176 0.9255);fill-opacity:1;"/>
<path d="M793.875 37.7664C794.28 34.9705 793.845 34.5399 795.555 32.8303L843.083 32.762C847.53 32.7612 862.365 32.4889 866.108 33.0815C867.525 34.7965 867.323 35.3644 867.398 37.7455L793.875 37.7664Z" fill="#E8EAEC" style="fill:#E8EAEC;fill:color(display-p3 0.9098 0.9176 0.9255);fill-opacity:1;"/>
<path d="M522.66 36.6344L523.02 33.6809C525.743 31.8152 584.426 32.7529 593.231 32.7889C595.052 34.2248 594.635 34.963 595.212 37.9C575.756 36.732 543.874 37.7492 523.441 37.7117L522.66 36.6344Z" fill="#E8EAEC" style="fill:#E8EAEC;fill:color(display-p3 0.9098 0.9176 0.9255);fill-opacity:1;"/>
<path d="M1508.88 37.8385C1501.22 37.6742 1441.31 38.1438 1439.16 37.2713C1437.75 35.3726 1438.05 36.3073 1438.33 33.6239C1440.46 32.4597 1503.87 32.2158 1508.92 33.0268C1510.2 34.8452 1510.04 35.4686 1510.21 37.8017L1508.88 37.8385Z" fill="#E8EAEC" style="fill:#E8EAEC;fill:color(display-p3 0.9098 0.9176 0.9255);fill-opacity:1;"/>
<path d="M924.383 37.0928C925.005 34.1108 924.45 34.1408 926.273 32.8272L975.233 32.7905C978.48 32.798 992.175 32.6374 994.365 33.1671C995.7 34.8115 995.49 35.4236 995.542 37.6862C986.422 37.8625 930.173 38.9315 924.383 37.0928Z" fill="#E8EAEC" style="fill:#E8EAEC;fill:color(display-p3 0.9098 0.9176 0.9255);fill-opacity:1;"/>
<path d="M344.988 14.5745L359.63 14.6105C360.186 21.4657 359.459 30.9158 360.454 36.7755L360.719 37.7042L359.848 37.8235C354.592 37.7995 349.337 37.7312 344.083 37.6179L344.3 37.2015C345.546 33.9562 345.043 18.9796 344.988 14.5745Z" fill="#E8EAEC" style="fill:#E8EAEC;fill:color(display-p3 0.9098 0.9176 0.9255);fill-opacity:1;"/>
<path d="M359.63 14.6105C360.186 21.4657 359.459 30.9158 360.454 36.7755L360.719 37.7042L359.848 37.8235C358.664 34.2218 359.206 18.771 359.63 14.6105Z" fill="#95969A" style="fill:#95969A;fill:color(display-p3 0.5843 0.5882 0.6039);fill-opacity:1;"/>
<path d="M1053.24 37.8309C1053.6 34.9577 1053.12 34.4814 1054.88 32.9113C1074.89 32.4956 1101.82 32.0913 1121.59 32.9105C1123.21 34.5197 1122.82 35.1048 1123.18 37.7739L1053.24 37.8309Z" fill="#E8EAEC" style="fill:#E8EAEC;fill:color(display-p3 0.9098 0.9176 0.9255);fill-opacity:1;"/>
<path d="M0 32.8235C5.9036 32.7927 45.8783 32.1454 48.3495 33.3419C48.9415 35.0381 49.2782 36.1003 49.6991 37.846C34.3449 37.2578 15.6183 37.7807 0 37.789V32.8235Z" fill="#E8EAEC" style="fill:#E8EAEC;fill:color(display-p3 0.9098 0.9176 0.9255);fill-opacity:1;"/>
<path d="M868.305 14.3134C869.617 14.6068 871.245 14.639 871.5 15.5618C873.292 22.0253 871.515 29.8093 872.535 36.7845L872.31 37.6389L868.193 38.083L867.742 36.4514C867.562 30.4934 867.285 19.9113 868.305 14.3134Z" fill="#E8EAEC" style="fill:#E8EAEC;fill:color(display-p3 0.9098 0.9176 0.9255);fill-opacity:1;"/>
<path d="M868.305 14.3134C868.492 19.558 868.927 31.5332 867.742 36.4514C867.562 30.4934 867.285 19.9113 868.305 14.3134Z" fill="#95969A" style="fill:#95969A;fill:color(display-p3 0.5843 0.5882 0.6039);fill-opacity:1;"/>
<path d="M788.812 37.7432C788.835 33.9893 788.46 16.747 789.84 14.7688L791.273 14.7246C794.34 19.3029 792.135 31.3591 793.312 37.972L788.812 37.7432Z" fill="#E8EAEC" style="fill:#E8EAEC;fill:color(display-p3 0.9098 0.9176 0.9255);fill-opacity:1;"/>
<path d="M595.848 37.8309C596.478 31.5369 594.883 19.5212 597.488 14.8881L598.853 14.7103C600.586 16.8806 599.953 32.9217 599.902 37.1513L599.87 37.6884L595.848 37.8309Z" fill="#E8EAEC" style="fill:#E8EAEC;fill:color(display-p3 0.9098 0.9176 0.9255);fill-opacity:1;"/>
<path d="M1123.74 38.05C1124.68 31.4214 1122.89 20.3172 1125.44 15.0291L1126.66 14.6541L1127.72 15.6278C1128.17 21.6667 1128.05 29.8453 1128.13 36.0545L1128.06 37.2691L1127.83 37.6539L1123.74 38.05Z" fill="#E8EAEC" style="fill:#E8EAEC;fill:color(display-p3 0.9098 0.9176 0.9255);fill-opacity:1;"/>
<path d="M464.841 37.7177C464.861 33.2436 464.31 18.5288 466.932 15.5588C469.351 18.4837 468.839 33.3944 468.857 37.7319L464.841 37.7177Z" fill="#E8EAEC" style="fill:#E8EAEC;fill:color(display-p3 0.9098 0.9176 0.9255);fill-opacity:1;"/>
<path d="M647.875 37.2864C647.869 32.3471 647.339 19.0839 649.717 15.2122C651.797 17.2369 651.816 25.1716 651.859 28.1326L651.938 37.3028L651.55 37.5309L648.185 37.5429L647.875 37.2864Z" fill="#E8EAEC" style="fill:#E8EAEC;fill:color(display-p3 0.9098 0.9176 0.9255);fill-opacity:1;"/>
<path d="M1304.04 37.8077C1304.1 33.8497 1303.81 16.747 1305.18 14.6315L1306.53 14.9729C1309.37 19.8116 1307.32 31.2338 1308.45 37.9787L1304.04 37.8077Z" fill="#E8EAEC" style="fill:#E8EAEC;fill:color(display-p3 0.9098 0.9176 0.9255);fill-opacity:1;"/>
<path d="M339.641 37.2893C339.892 32.4191 338.719 16.3622 341.788 14.0374C345.868 16.6045 342.476 31.3929 344.3 37.2015L344.083 37.6179L339.931 37.5174L339.641 37.2893Z" fill="#E8EAEC" style="fill:#E8EAEC;fill:color(display-p3 0.9098 0.9176 0.9255);fill-opacity:1;"/>
<path d="M1048.28 36.6892C1048.31 31.588 1048.09 19.702 1048.66 15.1394C1050.44 14.3742 1049.6 14.366 1051.26 14.9399C1052.9 21.1319 1051.52 31.5384 1052.54 38.0935L1048.67 37.6704L1048.28 36.6892Z" fill="#E8EAEC" style="fill:#E8EAEC;fill:color(display-p3 0.9098 0.9176 0.9255);fill-opacity:1;"/>
<path d="M1511.18 37.7642C1511.15 32.5534 1510.55 19.8303 1512.94 15.6038C1515.67 17.6938 1515.04 33.8767 1515.03 37.7154L1511.18 37.7642Z" fill="#E8EAEC" style="fill:#E8EAEC;fill:color(display-p3 0.9098 0.9176 0.9255);fill-opacity:1;"/>
<path d="M245.114 37.2503C245.184 32.882 244.716 17.1701 246.488 14.423L247.604 14.6848C250.07 20.0531 248.625 31.1153 249.146 37.2645L248.81 37.5722L245.439 37.5811L245.114 37.2503Z" fill="#E8EAEC" style="fill:#E8EAEC;fill:color(display-p3 0.9098 0.9176 0.9255);fill-opacity:1;"/>
<path d="M736.528 37.6607C736.666 31.3846 736.072 22.8513 736.652 16.513C736.772 15.2032 738.012 14.7516 738.874 14.315C740.953 16.663 740.189 31.8557 740.315 36.6539L739.541 37.7447L736.528 37.6607Z" fill="#E8EAEC" style="fill:#E8EAEC;fill:color(display-p3 0.9098 0.9176 0.9255);fill-opacity:1;"/>
<path d="M101.945 37.8265C101.941 33.092 101.38 19.1769 103.79 15.5092C106.16 18.0501 105.718 33.6704 105.745 37.6914L101.945 37.8265Z" fill="#E8EAEC" style="fill:#E8EAEC;fill:color(display-p3 0.9098 0.9176 0.9255);fill-opacity:1;"/>
<path d="M0 0.0322344L1365.27 0.0645147C1421.17 0.0667652 1480.33 1.06601 1536 0V3.37431C1477.51 4.33455 1416.58 3.44857 1357.87 3.44707L0 3.40806V0.0322344Z" fill="#3C3C3F" style="fill:#3C3C3F;fill:color(display-p3 0.2353 0.2353 0.2471);fill-opacity:1;"/>
<path d="M250.439 31.2789C265.988 30.0096 287.567 31.4499 303.691 30.8963C308.907 30.7178 335.061 30.7792 338.348 31.4777C336.353 31.8422 313.735 31.7822 310.757 31.7035C291.499 31.1964 269.466 32.4747 250.439 31.2789Z" fill="#95969A" style="fill:#95969A;fill:color(display-p3 0.5843 0.5882 0.6039);fill-opacity:1;"/>
<path d="M107.149 31.2819C119.047 30.0051 141.663 31.3861 154.545 30.8985C160.295 30.6802 188.107 30.789 191.917 31.4574C188.156 31.9833 167.351 31.7778 162.751 31.7012C144.878 31.4019 124.888 32.2856 107.149 31.2819Z" fill="#95969A" style="fill:#95969A;fill:color(display-p3 0.5843 0.5882 0.6039);fill-opacity:1;"/>
<path d="M522.865 31.2946C535.079 30.2601 552.146 31.2241 564.759 30.8941C570.02 30.756 590.34 30.7065 594.709 31.4266C591.729 31.837 573.824 31.8385 569.407 31.7117C555.034 31.2999 536.797 32.3839 522.865 31.2946Z" fill="#95969A" style="fill:#95969A;fill:color(display-p3 0.5843 0.5882 0.6039);fill-opacity:1;"/>
<path d="M1181.58 31.4732C1187.37 30.7335 1245.48 30.4769 1250.92 31.4882C1247.6 31.924 1230.08 31.8228 1225.3 31.7012C1211.61 31.3539 1194.84 32.3539 1181.58 31.4732Z" fill="#95969A" style="fill:#95969A;fill:color(display-p3 0.5843 0.5882 0.6039);fill-opacity:1;"/>
<path d="M0 30.9173C7.02352 30.9083 44.1257 30.4604 48.8481 31.5549C35.7268 32.2654 13.5585 31.8152 0 31.5444V30.9173Z" fill="#95969A" style="fill:#95969A;fill:color(display-p3 0.5843 0.5882 0.6039);fill-opacity:1;"/>
<path d="M994.958 31.3284C995.73 27.9173 995.213 17.5137 995.07 13.5985C994.133 18.8956 994.305 25.9953 994.958 31.3284Z" fill="#D3D2D4" style="fill:#D3D2D4;fill:color(display-p3 0.8275 0.8235 0.8314);fill-opacity:1;"/>
<path d="M1181.66 13.264C1182.2 18.0801 1182.25 26.6967 1181.58 31.4732C1180.95 27.9938 1181.36 16.9249 1181.66 13.264Z" fill="#95969A" style="fill:#95969A;fill:color(display-p3 0.5843 0.5882 0.6039);fill-opacity:1;"/>
<path d="M1308.87 13.612C1309.81 18.7838 1309.75 25.9323 1309.12 31.1506C1308.52 25.7478 1308.8 19.1356 1308.87 13.612Z" fill="#95969A" style="fill:#95969A;fill:color(display-p3 0.5843 0.5882 0.6039);fill-opacity:1;"/>
<path d="M1053.25 13.1357C1054.09 18.0194 1054.02 26.2722 1053.25 31.1619C1052.87 29.0283 1053.21 16.1049 1053.25 13.1357Z" fill="#95969A" style="fill:#95969A;fill:color(display-p3 0.5843 0.5882 0.6039);fill-opacity:1;"/>
<path d="M0 80.4549L1536 80.4751V93.4466V103.275V117.317V118.837L0 118.851V117.339V103.25V93.3925V80.4549Z" fill="#E8EAEC" style="fill:#E8EAEC;fill:color(display-p3 0.9098 0.9176 0.9255);fill-opacity:1;"/>
<path d="M0 80.4549L1536 80.4751V93.4466L0 93.3925V80.4549Z" fill="#E8EAEC" style="fill:#E8EAEC;fill:color(display-p3 0.9098 0.9176 0.9255);fill-opacity:1;"/>
<path d="M0 93.3925L1536 93.4466V103.275L0 103.25V93.3925Z" fill="#386387" style="fill:#386387;fill:color(display-p3 0.2196 0.3882 0.5294);fill-opacity:1;"/>
<path d="M1536 117.317V118.837L0 118.851V117.339L1353.1 117.292C1413.66 117.292 1475.54 116.656 1536 117.317Z" fill="#515152" style="fill:#515152;fill:color(display-p3 0.3176 0.3176 0.3216);fill-opacity:1;"/>
<path d="M1536 118.837V126.426V138.368V139.75V150.992C1477.15 150.224 1416.64 150.955 1357.67 150.953L0 151.001V139.827V138.329V136.821V118.851L1536 118.837Z" fill="#E8EAEC" style="fill:#E8EAEC;fill:color(display-p3 0.9098 0.9176 0.9255);fill-opacity:1;"/>
<path d="M0 139.827L1362.43 139.823C1419.1 139.824 1479.56 140.867 1536 139.75V150.992C1477.15 150.224 1416.64 150.955 1357.67 150.953L0 151.001V139.827Z" fill="#3C3C3F" style="fill:#3C3C3F;fill:color(display-p3 0.2353 0.2353 0.2471);fill-opacity:1;"/>
<path d="M1148.05 126.851C1159.24 126.724 1170.43 126.701 1181.62 126.782V136.65L1250.8 136.656L1250.83 126.812C1258.74 126.779 1268.99 126.447 1276.71 126.853L1277.42 128.466L1278.07 128.298C1283.19 128.581 1296.69 128.723 1301.94 128.302L1302.59 128.449L1303.3 126.813C1306.84 126.839 1306.63 126.227 1308.84 128.186C1309.73 131.047 1309.26 133.641 1309.02 136.675L1379.87 136.642L1379.83 126.809C1387.23 126.772 1397.81 126.404 1404.95 126.861L1405.58 128.001C1409.9 127.882 1428.31 127.367 1431.95 128.281L1434.49 126.844L1436.97 126.939C1438.92 129.698 1438.15 133.067 1437.92 136.668L1509.65 136.67C1509.56 133.775 1509.02 129.769 1510.44 127.563C1512.46 126.321 1513.45 126.68 1515.95 126.858L1516.6 128.03C1522.12 127.928 1528.02 127.697 1533.5 127.983V126.96L1536 126.426V138.368V139.75C1479.56 140.867 1419.1 139.824 1362.43 139.823L0 139.827V138.329C38.1612 137.59 378.339 139.339 380.417 137.306L383.138 136.754L382.154 137.625C383.602 138.608 430.619 138.205 437.129 138.211L702.564 138.235C712.948 138.254 728.653 138.742 738.56 138.007L738.81 137.435L736.283 136.824C736.316 132.996 736.262 130.662 735.88 126.863L760.312 126.834L794.378 126.723V136.665L842.13 136.561C846.945 136.554 862.605 136.278 866.767 137.209L866.227 138.121C882.667 139.17 909.9 138.222 927.473 138.236C946.83 138.253 974.895 139.191 993.233 137.948L993.69 137.449L990.142 136.91C992.235 136.81 992.228 136.869 994.155 136.142C996.203 132.953 993.907 131.955 995.43 127.728C997.71 126.338 997.778 126.802 1000.72 126.839L1001.44 128.563L1002.12 128.325C1006.48 128.55 1015.45 128.651 1019.87 128.108L1020.01 136.166L1020.89 136.183L1021.3 127.863C1029.83 127.827 1038.42 127.714 1046.93 128.059L1047.55 126.779C1051.34 126.867 1050.89 126.233 1053.11 128.262C1054.66 132.716 1052.31 133.54 1053.95 136.171C1059.35 136.98 1064.21 136.736 1069.64 136.749C1087.28 136.795 1105 136.443 1122.64 136.684C1122.55 133.776 1121.98 129.77 1123.43 127.561C1125.46 126.329 1126.45 126.681 1128.96 126.854L1129.49 128.038C1135.4 127.953 1141.52 127.775 1147.42 127.919L1148.05 126.851Z" fill="#95969A" style="fill:#95969A;fill:color(display-p3 0.5843 0.5882 0.6039);fill-opacity:1;"/>
<path d="M1405.58 128.001C1409.9 127.882 1428.31 127.367 1431.95 128.281C1431.63 130.295 1431.64 134.444 1431.58 136.636L1405.67 136.675L1405.58 128.001Z" fill="#E8EAEC" style="fill:#E8EAEC;fill:color(display-p3 0.9098 0.9176 0.9255);fill-opacity:1;"/>
<path d="M735.88 126.863L760.312 126.834L759.728 128.039V136.619L741.339 136.651C741.011 134.944 740.955 130.954 740.871 129.039C740.252 133.988 741.233 136.236 736.283 136.824C736.316 132.996 736.262 130.662 735.88 126.863Z" fill="#E8EAEC" style="fill:#E8EAEC;fill:color(display-p3 0.9098 0.9176 0.9255);fill-opacity:1;"/>
<path d="M735.88 126.863L760.312 126.834L759.728 128.039C753.72 127.831 747.704 127.782 741.694 127.889C741.66 130.097 741.701 134.716 741.339 136.651C741.011 134.944 740.955 130.954 740.871 129.039C740.252 133.988 741.233 136.236 736.283 136.824C736.316 132.996 736.262 130.662 735.88 126.863Z" fill="#6E6F70" style="fill:#6E6F70;fill:color(display-p3 0.4314 0.4353 0.4392);fill-opacity:1;"/>
<path d="M1021.3 127.863C1029.83 127.827 1038.42 127.714 1046.93 128.059L1046.86 136.62C1042.93 136.648 1023.38 137.057 1020.89 136.183L1021.3 127.863Z" fill="#E8EAEC" style="fill:#E8EAEC;fill:color(display-p3 0.9098 0.9176 0.9255);fill-opacity:1;"/>
<path d="M1301.94 128.302L1302.59 128.449L1302.61 136.677L1277.39 136.669L1277.42 128.466L1278.07 128.298C1283.19 128.581 1296.69 128.723 1301.94 128.302Z" fill="#E8EAEC" style="fill:#E8EAEC;fill:color(display-p3 0.9098 0.9176 0.9255);fill-opacity:1;"/>
<path d="M1533.5 126.96L1536 126.426V138.368C1532.52 138.31 1518.73 138.608 1516.67 137.539L1516.6 128.03C1522.12 127.928 1528.02 127.697 1533.5 127.983V126.96Z" fill="#E8EAEC" style="fill:#E8EAEC;fill:color(display-p3 0.9098 0.9176 0.9255);fill-opacity:1;"/>
<path d="M1533.5 126.96L1536 126.426V138.368C1532.52 138.31 1518.73 138.608 1516.67 137.539C1520.77 136.423 1529.01 136.79 1533.56 136.812L1533.5 127.983V126.96Z" fill="#3C3C3F" style="fill:#3C3C3F;fill:color(display-p3 0.2353 0.2353 0.2471);fill-opacity:1;"/>
<path d="M1129.49 128.038C1135.4 127.953 1141.52 127.775 1147.42 127.919C1147.38 130.826 1147.27 133.732 1147.11 136.635C1141.29 136.445 1135.06 137.968 1130.68 135.756C1128.82 132.863 1129.51 132.107 1129.49 128.038Z" fill="#E8EAEC" style="fill:#E8EAEC;fill:color(display-p3 0.9098 0.9176 0.9255);fill-opacity:1;"/>
<path d="M1002.12 128.325C1006.48 128.55 1015.45 128.651 1019.87 128.108L1020.01 136.166C1016.66 136.954 1005.55 136.681 1001.45 136.67L1001.44 128.563L1002.12 128.325Z" fill="#E8EAEC" style="fill:#E8EAEC;fill:color(display-p3 0.9098 0.9176 0.9255);fill-opacity:1;"/>
<path d="M761.4 128.185C765.42 127.806 783.93 127.373 787.53 128.17C787.583 131.44 787.537 132.749 787.102 136.007C785.04 137.211 765.435 136.683 761.49 136.651L761.4 128.185Z" fill="#E8EAEC" style="fill:#E8EAEC;fill:color(display-p3 0.9098 0.9176 0.9255);fill-opacity:1;"/>
<path d="M761.4 128.185C765.42 127.806 783.93 127.373 787.53 128.17C781.958 128.827 766.98 128.613 761.4 128.185Z" fill="#D3D2D4" style="fill:#D3D2D4;fill:color(display-p3 0.8275 0.8235 0.8314);fill-opacity:1;"/>
<path d="M1149.17 128.2C1153.65 127.773 1170.77 127.46 1175.08 128.128L1175.18 136.611L1149.18 136.675L1149.17 128.2Z" fill="#E8EAEC" style="fill:#E8EAEC;fill:color(display-p3 0.9098 0.9176 0.9255);fill-opacity:1;"/>
<path d="M1149.17 128.2C1153.65 127.773 1170.77 127.46 1175.08 128.128C1168.81 128.805 1155.49 128.658 1149.17 128.2Z" fill="#D3D2D4" style="fill:#D3D2D4;fill:color(display-p3 0.8275 0.8235 0.8314);fill-opacity:1;"/>
<path d="M1257.88 128.179C1262.18 127.761 1271.35 127.526 1275.61 128.189L1275.68 136.637L1257.88 136.655V128.179Z" fill="#E8EAEC" style="fill:#E8EAEC;fill:color(display-p3 0.9098 0.9176 0.9255);fill-opacity:1;"/>
<path d="M1257.88 128.179C1262.18 127.761 1271.35 127.526 1275.61 128.189C1271.24 128.765 1262.21 128.48 1257.88 128.179Z" fill="#D3D2D4" style="fill:#D3D2D4;fill:color(display-p3 0.8275 0.8235 0.8314);fill-opacity:1;"/>
<path d="M1386.94 128.058L1403.8 127.98L1403.9 136.636L1386.92 136.652L1386.94 128.058Z" fill="#E8EAEC" style="fill:#E8EAEC;fill:color(display-p3 0.9098 0.9176 0.9255);fill-opacity:1;"/>
<path d="M1310.81 137.856C1315.13 136.907 1363.08 136.395 1366.3 137.857C1363.11 138.922 1316.66 138.311 1310.81 137.856Z" fill="#3C3C3F" style="fill:#3C3C3F;fill:color(display-p3 0.2353 0.2353 0.2471);fill-opacity:1;"/>
<path d="M1466.61 137.859C1472.59 136.589 1503.14 136.646 1509.19 137.854C1502.05 138.628 1473.86 138.46 1466.61 137.859Z" fill="#3C3C3F" style="fill:#3C3C3F;fill:color(display-p3 0.2353 0.2353 0.2471);fill-opacity:1;"/>
<path d="M1048.29 127.363L1050.48 127.924C1052.84 130.459 1052.13 133.502 1052 137.298C1050.35 136.962 1050.15 136.864 1048.67 136.253C1047.32 133.491 1048 130.566 1048.29 127.363Z" fill="#E8EAEC" style="fill:#E8EAEC;fill:color(display-p3 0.9098 0.9176 0.9255);fill-opacity:1;"/>
<path d="M996.652 127.257L999.12 128.268C1000.39 131.063 999.772 134.214 999.547 137.413C997.92 137.013 997.507 137.109 996.435 135.85C995.362 133.048 996.15 130.234 996.652 127.257Z" fill="#E8EAEC" style="fill:#E8EAEC;fill:color(display-p3 0.9098 0.9176 0.9255);fill-opacity:1;"/>
<path d="M789.698 127.312C791.04 127.811 790.942 127.854 792.165 128.647C793.29 131.44 792.743 134.217 792.51 137.31C790.403 136.779 790.875 137.192 789.442 135.857C788.385 133.051 789.18 130.279 789.698 127.312Z" fill="#E8EAEC" style="fill:#E8EAEC;fill:color(display-p3 0.9098 0.9176 0.9255);fill-opacity:1;"/>
<path d="M1304.89 127.261L1307.21 128.482C1308.47 131.082 1307.9 134.274 1307.73 137.307C1306.36 136.989 1306.1 136.789 1304.84 136.146C1303.49 133.413 1304.38 130.328 1304.89 127.261Z" fill="#E8EAEC" style="fill:#E8EAEC;fill:color(display-p3 0.9098 0.9176 0.9255);fill-opacity:1;"/>
<path d="M1125.06 127.415C1126.35 127.885 1126.25 127.943 1127.42 128.728C1128.44 131.458 1127.94 134.308 1127.74 137.308L1125.06 136.391C1123.38 133.095 1124.26 131.073 1125.06 127.415Z" fill="#E8EAEC" style="fill:#E8EAEC;fill:color(display-p3 0.9098 0.9176 0.9255);fill-opacity:1;"/>
<path d="M1512 127.361L1514.19 128.465C1515.44 131.082 1514.89 134.264 1514.72 137.306C1509.38 135.728 1511.08 132.088 1512 127.361Z" fill="#E8EAEC" style="fill:#E8EAEC;fill:color(display-p3 0.9098 0.9176 0.9255);fill-opacity:1;"/>
<path d="M1382.21 127.326C1383.57 127.844 1383.43 127.879 1384.65 128.731C1385.69 131.458 1385.11 134.297 1384.84 137.303C1383.27 136.925 1383.01 137.031 1381.95 135.806C1380.94 133.032 1381.71 130.255 1382.21 127.326Z" fill="#E8EAEC" style="fill:#E8EAEC;fill:color(display-p3 0.9098 0.9176 0.9255);fill-opacity:1;"/>
<path d="M1253.29 127.365L1255.47 128.441C1256.72 131.082 1256.16 134.246 1255.98 137.306C1253.64 136.704 1254.32 137.217 1252.86 135.574C1252.08 132.601 1252.73 130.357 1253.29 127.365Z" fill="#E8EAEC" style="fill:#E8EAEC;fill:color(display-p3 0.9098 0.9176 0.9255);fill-opacity:1;"/>
<path d="M1177.4 127.256C1178.03 127.526 1179.04 128.178 1179.67 128.553C1180.69 131.108 1180.24 134.436 1180.12 137.305C1178.57 136.959 1178.63 137.001 1177.28 136.179C1176.02 133.404 1176.89 130.317 1177.4 127.256Z" fill="#E8EAEC" style="fill:#E8EAEC;fill:color(display-p3 0.9098 0.9176 0.9255);fill-opacity:1;"/>
<path d="M1440.56 137.854C1445.15 136.68 1462.96 136.621 1467.37 137.857C1462.66 138.65 1445.53 138.268 1440.56 137.854Z" fill="#3C3C3F" style="fill:#3C3C3F;fill:color(display-p3 0.2353 0.2353 0.2471);fill-opacity:1;"/>
<path d="M1433.89 127.284C1434.46 127.567 1435.4 128.274 1435.96 128.663C1436.98 131.508 1436.33 134.681 1436 137.725C1431.58 135.401 1433.11 131.626 1433.89 127.284Z" fill="#E8EAEC" style="fill:#E8EAEC;fill:color(display-p3 0.9098 0.9176 0.9255);fill-opacity:1;"/>
<path d="M830.812 137.853C835.117 136.897 842.947 136.591 847.117 137.857C843.097 138.639 835.117 138.154 830.812 137.853Z" fill="#3C3C3F" style="fill:#3C3C3F;fill:color(display-p3 0.2353 0.2353 0.2471);fill-opacity:1;"/>
<path d="M464.431 126.808L487.999 126.841L488.953 126.95L489.048 128.007C498.23 127.807 507.413 127.782 516.596 127.932L516.68 126.929C520.015 127.021 520.239 126.464 522.561 128.229C523.403 130.98 522.97 133.993 522.808 136.936C546.791 136.797 570.775 136.781 594.758 136.886C594.676 133.923 594.083 129.114 595.743 126.95L596.101 127.866L600.352 128.18L601.021 128.725L601.649 128.524C606.272 128.485 614.282 128.659 618.636 128.316L619.421 128.48L619.445 126.952C630.689 127.116 641.933 127.13 653.177 126.995L653.113 136.905L735.076 136.836C734.983 133.828 734.45 129.363 735.88 126.863C736.262 130.662 736.316 132.996 736.283 136.824L738.81 137.435L738.56 138.007C728.653 138.742 712.948 138.254 702.564 138.235L437.129 138.211C430.619 138.205 383.602 138.608 382.154 137.625L383.138 136.754L380.417 137.306C378.339 139.339 38.1612 137.59 0 138.329V136.821L49.0648 136.869L48.9526 127.112L74.0688 126.933L74.273 128.01C82.9778 127.809 91.6853 127.776 100.391 127.91L100.417 126.938C103.972 127.04 104.286 126.443 106.741 128.263C107.594 130.967 107.129 134.008 106.948 136.918L191.841 136.849C191.686 133.71 191.026 130.182 192.597 127.742C194.723 126.747 195.069 126.892 197.503 126.963L197.965 128.039C204.581 127.863 210.268 127.765 216.872 128.032L217.254 126.914L217.882 127.002L218.233 128.491L219.107 128.255C224.417 128.561 237.478 128.776 242.896 128.32L243.755 128.452L243.967 126.943C247.357 127.053 247.579 126.502 250.025 128.269C250.928 130.962 250.442 133.975 250.254 136.896L338.24 136.857C338.219 133.39 337.882 130.086 339.286 126.958L339.87 127.919L342.62 128.13C344.545 130.585 343.723 131.356 344.378 134.593C344.44 132.362 344.423 130.551 344.818 128.338C344.761 131.232 344.295 133.659 345.919 135.848C349.604 138.123 354.823 136.653 359.872 136.805C360.548 134.206 359.545 130.534 360.561 128.325C365.217 127.515 373.83 127.848 378.839 127.885L378.969 126.878C382.107 126.984 382.57 126.507 385 128.042C386.181 130.559 385.633 133.99 385.485 136.929L463.973 136.869C463.82 133.395 463.426 130.12 464.431 126.808Z" fill="#3C3C3F" style="fill:#3C3C3F;fill:color(display-p3 0.2353 0.2353 0.2471);fill-opacity:1;"/>
<path d="M489.048 128.007C498.23 127.807 507.413 127.782 516.596 127.932L516.723 136.849C510.582 136.85 494.83 137.269 489.719 136.359C488.546 134.234 488.993 130.637 489.048 128.007Z" fill="#E8EAEC" style="fill:#E8EAEC;fill:color(display-p3 0.9098 0.9176 0.9255);fill-opacity:1;"/>
<path d="M74.273 128.01C82.9778 127.809 91.6853 127.776 100.391 127.91L100.482 136.867C95.3378 136.875 78.996 137.25 74.7958 136.286C73.8697 134.206 74.2328 130.466 74.273 128.01Z" fill="#E8EAEC" style="fill:#E8EAEC;fill:color(display-p3 0.9098 0.9176 0.9255);fill-opacity:1;"/>
<path d="M464.431 126.808L487.999 126.841L487.634 127.858L487.6 136.863L470.036 136.791L468.529 137.235C466.911 137.111 466.976 137.03 465.527 136.241C464.329 133.805 464.806 130.695 464.914 127.838L464.431 126.808Z" fill="#E8EAEC" style="fill:#E8EAEC;fill:color(display-p3 0.9098 0.9176 0.9255);fill-opacity:1;"/>
<path d="M464.431 126.808L487.999 126.841L487.634 127.858L470.34 127.899L470.036 136.791L468.529 137.235C466.911 137.111 466.976 137.03 465.527 136.241C464.329 133.805 464.806 130.695 464.914 127.838L464.431 126.808Z" fill="#6E6F70" style="fill:#6E6F70;fill:color(display-p3 0.4314 0.4353 0.4392);fill-opacity:1;"/>
<path d="M464.914 127.838L467.521 128.099C469.533 130.859 468.791 133.654 468.529 137.235C466.911 137.111 466.976 137.03 465.527 136.241C464.329 133.805 464.806 130.695 464.914 127.838Z" fill="#E8EAEC" style="fill:#E8EAEC;fill:color(display-p3 0.9098 0.9176 0.9255);fill-opacity:1;"/>
<path d="M219.107 128.255C224.417 128.561 237.478 128.776 242.896 128.32L243.755 128.452L244.007 136.866L218.141 136.906L218.233 128.491L219.107 128.255Z" fill="#E8EAEC" style="fill:#E8EAEC;fill:color(display-p3 0.9098 0.9176 0.9255);fill-opacity:1;"/>
<path d="M197.965 128.039C204.581 127.863 210.268 127.765 216.872 128.032L216.905 136.856L197.98 136.878L197.965 128.039Z" fill="#E8EAEC" style="fill:#E8EAEC;fill:color(display-p3 0.9098 0.9176 0.9255);fill-opacity:1;"/>
<path d="M360.561 128.325C365.217 127.515 373.83 127.848 378.839 127.885L379.19 136.824C372.883 136.66 366.427 138.353 362.027 135.857C360.198 133.659 360.597 131.348 360.561 128.325Z" fill="#E8EAEC" style="fill:#E8EAEC;fill:color(display-p3 0.9098 0.9176 0.9255);fill-opacity:1;"/>
<path d="M618.636 128.316L619.421 128.48L619.543 136.846L600.981 136.865L601.021 128.725L601.649 128.524C606.272 128.485 614.282 128.659 618.636 128.316Z" fill="#E8EAEC" style="fill:#E8EAEC;fill:color(display-p3 0.9098 0.9176 0.9255);fill-opacity:1;"/>
<path d="M339.87 127.919L342.62 128.13C344.545 130.585 343.723 131.356 344.378 134.593L343.786 136.283C341.51 137.074 342.56 137.139 340.535 136.434C339.239 134.137 339.766 130.749 339.87 127.919Z" fill="#E8EAEC" style="fill:#E8EAEC;fill:color(display-p3 0.9098 0.9176 0.9255);fill-opacity:1;"/>
<path d="M596.101 127.866L600.352 128.18C600.157 132.515 600.679 133.518 598.362 136.449L597.097 136.133C595.432 133.617 595.971 131.037 596.101 127.866Z" fill="#E8EAEC" style="fill:#E8EAEC;fill:color(display-p3 0.9098 0.9176 0.9255);fill-opacity:1;"/>
<path d="M380.417 137.306C380.261 134.126 379.716 131.501 381.273 128.884L382.685 128.446C384.735 131.1 384.478 133.656 383.138 136.754L380.417 137.306Z" fill="#E8EAEC" style="fill:#E8EAEC;fill:color(display-p3 0.9098 0.9176 0.9255);fill-opacity:1;"/>
<path d="M621.035 128.057C625.965 127.194 640.351 127.173 645.425 127.824C648.064 129.737 647.403 133.859 646.781 136.86L620.98 136.912L621.035 128.057Z" fill="#E8EAEC" style="fill:#E8EAEC;fill:color(display-p3 0.9098 0.9176 0.9255);fill-opacity:1;"/>
<path d="M621.035 128.057C625.965 127.194 640.351 127.173 645.425 127.824C648.064 129.737 647.403 133.859 646.781 136.86C646.297 134.767 646.256 130.791 646.157 128.502C639.032 128.524 627.774 128.868 621.035 128.057Z" fill="#D3D2D4" style="fill:#D3D2D4;fill:color(display-p3 0.8275 0.8235 0.8314);fill-opacity:1;"/>
<path d="M55.5481 127.76C61.2278 127.79 67.6415 126.148 71.8051 128.878C73.5233 131.194 72.9995 133.798 72.912 136.867L55.4632 136.839L55.5481 127.76Z" fill="#E8EAEC" style="fill:#E8EAEC;fill:color(display-p3 0.9098 0.9176 0.9255);fill-opacity:1;"/>
<path d="M648.447 127.128C650.003 127.565 649.922 127.593 651.229 128.576C652.489 131.464 651.865 134.521 651.612 137.783C649.862 137.228 649.942 137.268 648.464 136.178C647.119 133.401 647.979 130.241 648.447 127.128Z" fill="#E8EAEC" style="fill:#E8EAEC;fill:color(display-p3 0.9098 0.9176 0.9255);fill-opacity:1;"/>
<path d="M50.7294 127.149C53.1472 127.794 52.1447 127.2 53.875 128.952C54.5396 131.84 54.4067 134.015 54.379 136.938C52.5527 136.983 52.5678 137.084 50.8976 136.152C49.5613 133.445 50.3642 130.326 50.7294 127.149Z" fill="#E8EAEC" style="fill:#E8EAEC;fill:color(display-p3 0.9098 0.9176 0.9255);fill-opacity:1;"/>
<path d="M245.611 127.14C246.845 127.491 247.174 127.771 248.289 128.425C249.721 131.088 249.056 134.508 248.802 137.608C247.093 137.21 246.812 137.317 245.59 136.049C244.489 133.034 245.189 130.406 245.611 127.14Z" fill="#E8EAEC" style="fill:#E8EAEC;fill:color(display-p3 0.9098 0.9176 0.9255);fill-opacity:1;"/>
<path d="M518.23 127.17C519.706 127.605 519.61 127.668 520.963 128.433C522.32 131.083 521.907 134.285 521.871 137.397C520.138 137.136 520.108 137.049 518.597 136.317C517.221 133.441 517.919 130.484 518.23 127.17Z" fill="#D3D2D4" style="fill:#D3D2D4;fill:color(display-p3 0.8275 0.8235 0.8314);fill-opacity:1;"/>
<path d="M193.327 127.128C194.555 127.441 194.779 127.687 195.868 128.36C197.137 131.13 196.549 134.743 196.34 137.869C194.687 137.247 194.743 137.279 193.352 136.19C192.024 133.395 192.867 130.246 193.327 127.128Z" fill="#E8EAEC" style="fill:#E8EAEC;fill:color(display-p3 0.9098 0.9176 0.9255);fill-opacity:1;"/>
<path d="M892.665 126.944C898.882 126.919 914.355 127.245 919.958 126.608L923.61 127.118C925.785 130.068 924.99 132.966 924.773 136.901C945.465 136.849 969.69 136.205 990.142 136.91L993.69 137.449L993.233 137.948C974.895 139.191 946.83 138.253 927.473 138.236C909.9 138.222 882.667 139.17 866.227 138.121L866.767 137.209C867.18 134.907 867.075 129.617 867.09 127.038L892.665 126.944Z" fill="#515152" style="fill:#515152;fill:color(display-p3 0.3176 0.3176 0.3216);fill-opacity:1;"/>
<path d="M892.665 126.944C898.882 126.919 914.355 127.245 919.958 126.608L920.167 127.702L920.055 137.733C918.637 133.638 920.033 130.698 918.885 128.275C918.803 130.1 918.675 135.329 918.3 136.799L892.605 136.877C892.117 133.989 892.5 129.971 892.665 126.944Z" fill="#E8EAEC" style="fill:#E8EAEC;fill:color(display-p3 0.9098 0.9176 0.9255);fill-opacity:1;"/>
<path d="M892.665 126.944C898.882 126.919 914.355 127.245 919.958 126.608L920.167 127.702L920.055 137.733C918.637 133.638 920.033 130.698 918.885 128.275C915.39 127.196 897.052 127.531 893.175 128.157C893.13 130.83 893.242 134.368 892.605 136.877C892.117 133.989 892.5 129.971 892.665 126.944Z" fill="#6E6F70" style="fill:#6E6F70;fill:color(display-p3 0.4314 0.4353 0.4392);fill-opacity:1;"/>
<path d="M893.175 128.157C897.052 127.531 915.39 127.196 918.885 128.275C918.803 130.1 918.675 135.329 918.3 136.799C917.932 134.987 917.722 130.536 917.58 128.473C910.102 128.511 900.442 128.809 893.175 128.157Z" fill="#D3D2D4" style="fill:#D3D2D4;fill:color(display-p3 0.8275 0.8235 0.8314);fill-opacity:1;"/>
<path d="M920.167 127.702C925.432 128.657 924.607 135.761 920.055 137.733L920.167 127.702Z" fill="#E8EAEC" style="fill:#E8EAEC;fill:color(display-p3 0.9098 0.9176 0.9255);fill-opacity:1;"/>
<path d="M873.098 128.084C877.013 127.374 887.895 127.144 891.622 128.02L891.788 136.825L873.188 136.843L873.098 128.084Z" fill="#E8EAEC" style="fill:#E8EAEC;fill:color(display-p3 0.9098 0.9176 0.9255);fill-opacity:1;"/>
<path d="M873.098 128.084C877.013 127.374 887.895 127.144 891.622 128.02C886.86 128.77 877.853 128.679 873.098 128.084Z" fill="#D3D2D4" style="fill:#D3D2D4;fill:color(display-p3 0.8275 0.8235 0.8314);fill-opacity:1;"/>
<path d="M868.245 127.181C870.81 127.881 870.195 127.353 871.905 129.043C872.678 131.762 872.363 134.477 872.22 137.3C870.435 137.029 870.42 136.963 868.86 136.236C867.375 133.469 868.02 130.469 868.245 127.181Z" fill="#E8EAEC" style="fill:#E8EAEC;fill:color(display-p3 0.9098 0.9176 0.9255);fill-opacity:1;"/>
<path d="M344.818 128.338C349.099 127.542 354.86 127.818 359.326 127.863C359.386 130.528 359.308 134.299 359.872 136.805C354.823 136.653 349.604 138.123 345.919 135.848C344.295 133.659 344.761 131.232 344.818 128.338Z" fill="#E8EAEC" style="fill:#E8EAEC;fill:color(display-p3 0.9098 0.9176 0.9255);fill-opacity:1;"/>
<path d="M1000.72 126.839C1016.21 126.825 1032.09 126.998 1047.55 126.779L1046.93 128.059C1038.42 127.714 1029.83 127.827 1021.3 127.863L1020.89 136.183L1020.01 136.166L1019.87 128.108C1015.45 128.651 1006.48 128.55 1002.12 128.325L1001.44 128.563L1000.72 126.839Z" fill="#6E6F70" style="fill:#6E6F70;fill:color(display-p3 0.4314 0.4353 0.4392);fill-opacity:1;"/>
<path d="M1002.12 128.325C1005.7 127.288 1016.22 127.535 1019.87 128.108C1015.45 128.651 1006.48 128.55 1002.12 128.325Z" fill="#D3D2D4" style="fill:#D3D2D4;fill:color(display-p3 0.8275 0.8235 0.8314);fill-opacity:1;"/>
<path d="M339.286 126.958C351.316 126.425 366.689 126.869 378.969 126.878L378.839 127.885C373.83 127.848 365.217 127.515 360.561 128.325C359.545 130.534 360.548 134.206 359.872 136.805C359.308 134.299 359.386 130.528 359.326 127.863C354.86 127.818 349.099 127.542 344.818 128.338C344.423 130.551 344.44 132.362 344.378 134.593C343.723 131.356 344.545 130.585 342.62 128.13L339.87 127.919L339.286 126.958Z" fill="#6E6F70" style="fill:#6E6F70;fill:color(display-p3 0.4314 0.4353 0.4392);fill-opacity:1;"/>
<path d="M1276.71 126.853L1303.3 126.813L1302.59 128.449L1301.94 128.302C1296.69 128.723 1283.19 128.581 1278.07 128.298L1277.42 128.466L1276.71 126.853Z" fill="#6E6F70" style="fill:#6E6F70;fill:color(display-p3 0.4314 0.4353 0.4392);fill-opacity:1;"/>
<path d="M1278.07 128.298C1281.36 127.38 1299.11 127.236 1301.94 128.302C1296.69 128.723 1283.19 128.581 1278.07 128.298Z" fill="#D3D2D4" style="fill:#D3D2D4;fill:color(display-p3 0.8275 0.8235 0.8314);fill-opacity:1;"/>
<path d="M217.882 127.002C226.576 126.804 235.273 126.784 243.967 126.943L243.755 128.452L242.896 128.32C237.478 128.776 224.417 128.561 219.107 128.255L218.233 128.491L217.882 127.002Z" fill="#6E6F70" style="fill:#6E6F70;fill:color(display-p3 0.4314 0.4353 0.4392);fill-opacity:1;"/>
<path d="M219.107 128.255C222.368 127.393 240.144 127.244 242.896 128.32C237.478 128.776 224.417 128.561 219.107 128.255Z" fill="#D3D2D4" style="fill:#D3D2D4;fill:color(display-p3 0.8275 0.8235 0.8314);fill-opacity:1;"/>
<path d="M595.743 126.95C603.643 126.797 611.546 126.798 619.445 126.952L619.421 128.48L618.636 128.316C614.282 128.659 606.272 128.485 601.649 128.524L601.021 128.725L600.352 128.18L596.101 127.866L595.743 126.95Z" fill="#6E6F70" style="fill:#6E6F70;fill:color(display-p3 0.4314 0.4353 0.4392);fill-opacity:1;"/>
<path d="M601.649 128.524C604.589 127.339 616.103 127.242 618.636 128.316C614.282 128.659 606.272 128.485 601.649 128.524Z" fill="#D3D2D4" style="fill:#D3D2D4;fill:color(display-p3 0.8275 0.8235 0.8314);fill-opacity:1;"/>
<path d="M1404.95 126.861L1434.49 126.844L1431.95 128.281C1428.31 127.367 1409.9 127.882 1405.58 128.001L1404.95 126.861Z" fill="#6E6F70" style="fill:#6E6F70;fill:color(display-p3 0.4314 0.4353 0.4392);fill-opacity:1;"/>
<path d="M488.953 126.95C498.195 126.81 507.438 126.803 516.68 126.929L516.596 127.932C507.413 127.782 498.23 127.807 489.048 128.007L488.953 126.95Z" fill="#6E6F70" style="fill:#6E6F70;fill:color(display-p3 0.4314 0.4353 0.4392);fill-opacity:1;"/>
<path d="M74.0688 126.933C82.851 126.825 91.635 126.827 100.417 126.938L100.391 127.91C91.6853 127.776 82.9778 127.809 74.273 128.01L74.0688 126.933Z" fill="#6E6F70" style="fill:#6E6F70;fill:color(display-p3 0.4314 0.4353 0.4392);fill-opacity:1;"/>
<path d="M197.503 126.963C204.086 126.839 210.67 126.823 217.254 126.914L216.872 128.032C210.268 127.765 204.581 127.863 197.965 128.039L197.503 126.963Z" fill="#6E6F70" style="fill:#6E6F70;fill:color(display-p3 0.4314 0.4353 0.4392);fill-opacity:1;"/>
<path d="M1128.96 126.854L1148.05 126.851L1147.42 127.919C1141.52 127.775 1135.4 127.953 1129.49 128.038L1128.96 126.854Z" fill="#6E6F70" style="fill:#6E6F70;fill:color(display-p3 0.4314 0.4353 0.4392);fill-opacity:1;"/>
<path d="M1515.95 126.858C1521.4 126.88 1528.16 126.724 1533.5 126.96V127.983C1528.02 127.697 1522.12 127.928 1516.6 128.03L1515.95 126.858Z" fill="#6E6F70" style="fill:#6E6F70;fill:color(display-p3 0.4314 0.4353 0.4392);fill-opacity:1;"/>
<path d="M0 151.001L1357.67 150.953C1416.64 150.955 1477.15 150.224 1536 150.992V153.149V178.554L1533.65 177.646C1533.2 171.08 1533.49 164.986 1533.71 158.42L1516.37 158.482L1515.16 158.202L1511.17 158.304L1510.22 158.281C1509.92 160.594 1510.18 161.669 1508.88 163.282C1487.74 165.017 1459.84 162.088 1438.53 163.598L1438.52 164.607C1436.8 169.328 1438.72 176.005 1437.28 179.216L1436.27 179.559C1432.4 180.153 1421.09 179.928 1416.78 179.908L1380.01 179.695L1379.96 164.66C1359.44 165.292 1330.05 165.375 1309.59 164.646L1308.8 167.29L1308.14 175.941C1307.73 171.224 1309.06 163.277 1307.31 159.05C1306.99 158.273 1305.46 158.274 1304.32 158.067L1303.07 158.073C1296.69 158.786 1283.96 158.433 1277.1 158.43L1276.05 158.096C1271.99 158.61 1262.03 158.39 1257.57 158.389L1256.35 157.94C1255.07 158.3 1253.47 158.673 1252.28 159.186L1251.41 159.07C1247 157.711 1191.79 158.334 1182.52 158.811C1181.69 158.854 1181.31 160.028 1181.02 160.698L1180.52 160.566L1179.66 158.712L1176.89 158.037L1175.54 158.103C1169.74 158.598 1152.73 158.024 1149.07 158.831L1147.55 159.37C1145.51 157.772 1132.69 158.416 1129.08 158.446L1128.35 158.448L1124.14 158.187L1123.2 158.232C1101.64 159.097 1075.11 158.396 1053.2 158.459L1052.43 158.449L1048.21 158.098L1047.33 158.438L1021.45 158.446L1020.5 158.988L1020.1 159.01C1016.99 157.821 1004.81 158.42 1001.01 158.571L999.968 157.954L995.895 158.993L995.4 158.965C990.847 157.399 933.458 158.316 924.63 158.592L923.235 158.668L920.07 158.253L918.802 158.193C912.382 158.781 899.835 158.409 892.958 158.409L891.945 158.187C886.56 158.64 879.052 158.384 873.465 158.342L872.753 158.977L872.288 158.992L869.94 158.478C866.558 160.91 868.275 171.365 867.81 175.939L867.008 175.787C867.173 172.339 867.548 167.633 866.273 164.576L866.333 163.65C844.298 162.086 817.507 164.678 795.36 163.276C793.8 161.635 794.175 160.971 793.807 158.374L792.93 158.026L788.753 158.601L787.852 158.353C781.545 158.351 766.732 157.976 761.1 158.72L760.035 158.661C756.773 158.219 745.323 158.357 741.496 158.322L740.812 159.034L740.259 159.013L737.606 158.463C736.423 159.642 736.771 158.969 736.374 160.457L735.628 160.718L734.899 159.32C732.406 157.673 661.936 158.423 652.896 158.44L651.677 158.013L647.917 159.038L647.37 159.06L646.537 158.365C642.679 158.356 623.659 158.133 620.912 158.798L619.484 158.827C615.992 158.135 605.18 158.399 601.135 158.415L600.424 158.497C599.839 163.456 600.413 175.636 599.338 178.135L594.601 179.579C594.893 176.005 595.013 168.564 594.216 165.193L593.921 164.391L594.039 163.705C572.15 162.37 546.815 164.471 524.662 163.253C523.506 163.189 523.484 162.669 522.486 161.481L522.102 161.358C521.931 160.094 521.756 159.877 521.242 158.695L518.559 158.173L516.917 158.715C513.349 158.011 492.814 158.391 488.742 158.617L487.907 158.353L470.09 158.451L468.073 157.586C465.348 158.908 464.689 158.696 464.758 162.161L464.411 162.26C461.744 163.814 391.28 164.148 384.971 163.292L384.051 163.601C384.139 161.33 384.438 160.438 383.23 158.682L380.65 158.252L378.679 158.678C374.662 158.48 363.916 157.784 360.698 159.003L360.152 159.013L359.369 158.382L344.885 158.484L343.522 157.985L339.546 158.753L338.863 158.898C331.775 157.637 251.83 157.897 250.081 159.287C249.966 159.379 249.872 159.498 249.768 159.603L249.209 159.86C247.484 158.134 248.034 158.673 245.221 158.101L244.123 158.099C237.978 158.793 224.796 158.437 218.116 158.436L217.086 158.116C213.106 158.628 202.373 158.466 197.904 158.504L196.321 158.072L193.544 158.737C192.571 160.346 192.633 160.226 192.589 162.115L192.215 162.186L190.904 163.382C187.98 162.802 166.952 162.841 162.346 162.957C144.558 163.407 123.973 162.218 106.515 163.341L105.779 159.004C104.854 158.517 103.351 158.372 102.247 158.175L100.606 158.583C94.1085 158.004 81.0983 158.42 74.124 158.43L73.1881 158.143C67.5145 158.639 61.2108 158.379 55.4757 158.295L54.4472 157.653L50.2321 158.941L49.3851 158.938C45.4706 157.875 5.83625 158.393 0 158.418V153.13V151.001Z" fill="#3C3C3F" style="fill:#3C3C3F;fill:color(display-p3 0.2353 0.2353 0.2471);fill-opacity:1;"/>
<path d="M0 151.001L1357.67 150.953C1416.64 150.955 1477.15 150.224 1536 150.992V153.149L0 153.13V151.001Z" fill="#E8EAEC" style="fill:#E8EAEC;fill:color(display-p3 0.9098 0.9176 0.9255);fill-opacity:1;"/>
<path d="M1404.19 158.027L1405.53 158.252L1405.49 178.081C1410.39 178.062 1428.17 177.676 1431.82 178.785L1430.82 179.187L1436.27 179.559C1432.4 180.153 1421.09 179.928 1416.78 179.908L1380.01 179.695L1379.96 164.66C1359.44 165.292 1330.05 165.375 1309.59 164.646V163.592C1330.6 163.281 1358.99 164.689 1378.89 163.341C1380.38 161.701 1380.05 160.76 1380.4 158.239L1381.43 158.355L1385.53 158.076L1386.66 158.418C1390.72 158.42 1400.73 158.639 1404.19 158.027Z" fill="#515152" style="fill:#515152;fill:color(display-p3 0.3176 0.3176 0.3216);fill-opacity:1;"/>
<path d="M1386.66 158.418C1390.72 158.42 1400.73 158.639 1404.19 158.027C1403.71 163.136 1403.97 172.628 1403.96 178.081L1386.71 178.024C1386.77 171.529 1386.68 164.922 1386.66 158.418Z" fill="#E8EAEC" style="fill:#E8EAEC;fill:color(display-p3 0.9098 0.9176 0.9255);fill-opacity:1;"/>
<path d="M1381.43 158.355L1385.53 158.076C1384.61 166.754 1386.21 167.17 1383.7 177.662L1382.87 178.119C1381.12 173.361 1381.4 163.582 1381.43 158.355Z" fill="#E8EAEC" style="fill:#E8EAEC;fill:color(display-p3 0.9098 0.9176 0.9255);fill-opacity:1;"/>
<path d="M1405.53 158.252C1414.3 158.462 1423.06 158.535 1431.83 158.472L1433.59 158.08C1433.15 161.774 1432.52 174.947 1433.88 178.033L1431.82 178.785C1428.17 177.676 1410.39 178.062 1405.49 178.081L1405.53 158.252Z" fill="#E8EAEC" style="fill:#E8EAEC;fill:color(display-p3 0.9098 0.9176 0.9255);fill-opacity:1;"/>
<path d="M1431.83 158.472L1433.59 158.08C1433.15 161.774 1432.52 174.947 1433.88 178.033L1431.82 178.785C1431.52 172.332 1431.76 165.002 1431.83 158.472Z" fill="#515152" style="fill:#515152;fill:color(display-p3 0.3176 0.3176 0.3216);fill-opacity:1;"/>
<path d="M384.971 163.292C385.232 161.286 385.4 160.679 385.997 158.735C392.707 157.903 461.941 157.986 463.973 159.346L464.411 162.26C461.744 163.814 391.28 164.148 384.971 163.292Z" fill="#E8EAEC" style="fill:#E8EAEC;fill:color(display-p3 0.9098 0.9176 0.9255);fill-opacity:1;"/>
<path d="M106.515 163.341C106.723 161.37 106.598 160.055 107.913 158.641C123.597 157.436 173.399 158.621 191.293 158.87C192.004 158.881 192.056 161.097 192.215 162.186L190.904 163.382C187.98 162.802 166.952 162.841 162.346 162.957C144.558 163.407 123.973 162.218 106.515 163.341Z" fill="#E8EAEC" style="fill:#E8EAEC;fill:color(display-p3 0.9098 0.9176 0.9255);fill-opacity:1;"/>
<path d="M793.807 158.374L841.11 158.31C847.192 158.302 860.902 157.91 866.325 158.751C867.397 160.348 867.345 161.904 866.333 163.65C844.298 162.086 817.507 164.678 795.36 163.276C793.8 161.635 794.175 160.971 793.807 158.374Z" fill="#E8EAEC" style="fill:#E8EAEC;fill:color(display-p3 0.9098 0.9176 0.9255);fill-opacity:1;"/>
<path d="M1438.53 163.598C1437.59 161.769 1437.46 160.34 1438.52 158.694C1446.02 158.064 1456.84 158.388 1464.55 158.394C1479.77 158.464 1495 158.427 1510.22 158.281C1509.92 160.594 1510.18 161.669 1508.88 163.282C1487.74 165.017 1459.84 162.088 1438.53 163.598Z" fill="#E8EAEC" style="fill:#E8EAEC;fill:color(display-p3 0.9098 0.9176 0.9255);fill-opacity:1;"/>
<path d="M522.486 161.481L523.212 158.889C525.134 158.154 590.478 157.997 594.385 158.875C595.085 160.995 594.734 161.439 594.039 163.705C572.15 162.37 546.815 164.471 524.662 163.253C523.506 163.189 523.484 162.669 522.486 161.481Z" fill="#E8EAEC" style="fill:#E8EAEC;fill:color(display-p3 0.9098 0.9176 0.9255);fill-opacity:1;"/>
<path d="M1309.59 163.592C1308.82 161.493 1308.86 160.664 1309.6 158.917C1315.66 157.019 1369.72 158.49 1380.4 158.239C1380.05 160.76 1380.38 161.701 1378.89 163.341C1358.99 164.689 1330.6 163.281 1309.59 163.592Z" fill="#E8EAEC" style="fill:#E8EAEC;fill:color(display-p3 0.9098 0.9176 0.9255);fill-opacity:1;"/>
<path d="M596.401 157.661L600.424 158.497C599.839 163.456 600.413 175.636 599.338 178.135L596.273 177.977C596.177 171.205 596.219 164.432 596.401 157.661Z" fill="#E8EAEC" style="fill:#E8EAEC;fill:color(display-p3 0.9098 0.9176 0.9255);fill-opacity:1;"/>
<path d="M1433.59 158.08L1435.79 158.669C1437.16 161.487 1437.72 175.553 1435.78 177.784L1433.88 178.033C1432.52 174.947 1433.15 161.774 1433.59 158.08Z" fill="#E8EAEC" style="fill:#E8EAEC;fill:color(display-p3 0.9098 0.9176 0.9255);fill-opacity:1;"/>
<path d="M596.273 177.977C594.861 175.688 594.969 160.399 596.401 157.661C596.219 164.432 596.177 171.205 596.273 177.977Z" fill="#6E6F70" style="fill:#6E6F70;fill:color(display-p3 0.4314 0.4353 0.4392);fill-opacity:1;"/>
<path d="M0 185.138L1536 185.147V186.866V191.624L0 191.588V186.962V185.138Z" fill="#D3D2D4" style="fill:#D3D2D4;fill:color(display-p3 0.8275 0.8235 0.8314);fill-opacity:1;"/>
<path d="M0 185.138L1536 185.147V186.866L0 186.962V185.138Z" fill="#515152" style="fill:#515152;fill:color(display-p3 0.3176 0.3176 0.3216);fill-opacity:1;"/>
<path d="M999.968 157.954L1001.01 158.571C1004.81 158.42 1016.99 157.821 1020.1 159.01L1020.5 158.988L1021.45 158.446L1047.33 158.438L1048.21 158.098L1052.43 158.449L1053.2 158.459C1075.11 158.396 1101.64 159.097 1123.2 158.232L1124.14 158.187L1128.35 158.448L1129.08 158.446C1132.69 158.416 1145.51 157.772 1147.55 159.37L1149.07 158.831C1152.73 158.024 1169.74 158.598 1175.54 158.103L1176.89 158.037L1179.66 158.712L1180.52 160.566L1181.02 160.698C1181.31 160.028 1181.69 158.854 1182.52 158.811C1191.79 158.334 1247 157.711 1251.41 159.07L1252.28 159.186C1253.47 158.673 1255.07 158.3 1256.35 157.94L1257.57 158.389C1262.03 158.39 1271.99 158.61 1276.05 158.096L1277.1 158.43C1283.96 158.433 1296.69 158.786 1303.07 158.073L1304.32 158.067C1305.46 158.274 1306.99 158.273 1307.31 159.05C1309.06 163.277 1307.73 171.224 1308.14 175.941L1308.8 167.29C1309.15 171.866 1309.19 175.167 1309.11 179.762L1250.98 179.81L1250.94 164.779C1229.13 164.886 1203.28 165.502 1181.68 164.761L1181.44 179.868C1161.9 179.939 1142.36 179.89 1122.82 179.721V164.922L1053.59 164.862L1053.34 179.752C1034.13 179.788 1014.32 180.074 995.168 179.751L995.183 164.677C973.305 165.112 946.598 165.415 924.825 164.773L924.848 179.782L889.32 179.878C882.893 179.895 874.058 180.245 867.915 179.535C866.573 177.873 866.978 178.477 867.008 175.787L867.81 175.939C868.275 171.365 866.558 160.91 869.94 158.478L872.288 158.992L872.753 158.977L873.465 158.342C879.052 158.384 886.56 158.64 891.945 158.187L892.958 158.409C899.835 158.409 912.382 158.781 918.802 158.193L920.07 158.253L923.235 158.668L924.63 158.592C933.458 158.316 990.847 157.399 995.4 158.965L995.895 158.993L999.968 157.954Z" fill="#515152" style="fill:#515152;fill:color(display-p3 0.3176 0.3176 0.3216);fill-opacity:1;"/>
<path d="M1149.07 158.831C1152.73 158.024 1169.74 158.598 1175.54 158.103C1175.17 164.953 1175.19 171.245 1175.22 178.108C1166.71 178.075 1157.51 178.225 1149.06 177.986L1149.07 158.831Z" fill="#E8EAEC" style="fill:#E8EAEC;fill:color(display-p3 0.9098 0.9176 0.9255);fill-opacity:1;"/>
<path d="M1021.45 158.446L1047.33 158.438C1047.01 165.251 1046.99 171.346 1047.03 178.169C1039.48 178.117 1028.42 178.4 1021.16 177.922C1020.47 174.508 1020.55 163.12 1020.5 158.988L1021.45 158.446Z" fill="#E8EAEC" style="fill:#E8EAEC;fill:color(display-p3 0.9098 0.9176 0.9255);fill-opacity:1;"/>
<path d="M1020.5 158.988L1021.45 158.446C1021.49 163.823 1021.76 172.879 1021.16 177.922C1020.47 174.508 1020.55 163.12 1020.5 158.988Z" fill="#95969A" style="fill:#95969A;fill:color(display-p3 0.5843 0.5882 0.6039);fill-opacity:1;"/>
<path d="M1277.1 158.43C1283.96 158.433 1296.69 158.786 1303.07 158.073C1302.58 163.013 1302.8 172.836 1302.77 178.149L1277.21 178.038L1277.1 158.43Z" fill="#E8EAEC" style="fill:#E8EAEC;fill:color(display-p3 0.9098 0.9176 0.9255);fill-opacity:1;"/>
<path d="M892.958 158.409C899.835 158.409 912.382 158.781 918.802 158.193C918.367 164.759 918.578 171.577 918.653 178.173L893.032 178.026C893.205 171.502 893.055 164.938 892.958 158.409Z" fill="#E8EAEC" style="fill:#E8EAEC;fill:color(display-p3 0.9098 0.9176 0.9255);fill-opacity:1;"/>
<path d="M924.63 158.592C933.458 158.316 990.847 157.399 995.4 158.965L995.16 163.61C992.033 164.005 969.915 163.958 965.895 163.808C954.368 163.378 935.782 164.587 924.907 163.533L924.63 158.592Z" fill="#E8EAEC" style="fill:#E8EAEC;fill:color(display-p3 0.9098 0.9176 0.9255);fill-opacity:1;"/>
<path d="M924.907 163.533C930.637 162.669 989.625 162.558 995.16 163.61C992.033 164.005 969.915 163.958 965.895 163.808C954.368 163.378 935.782 164.587 924.907 163.533Z" fill="#95969A" style="fill:#95969A;fill:color(display-p3 0.5843 0.5882 0.6039);fill-opacity:1;"/>
<path d="M1001.01 158.571C1004.81 158.42 1016.99 157.821 1020.1 159.01L1020.04 178.075L1001.3 178.107C1001.37 171.272 1001.39 165.388 1001.01 158.571Z" fill="#E8EAEC" style="fill:#E8EAEC;fill:color(display-p3 0.9098 0.9176 0.9255);fill-opacity:1;"/>
<path d="M873.465 158.342C879.052 158.384 886.56 158.64 891.945 158.187C891.315 164.775 891.503 171.442 891.69 178.061L873.308 178.041C873.008 176.533 872.82 161.511 872.753 158.977L873.465 158.342Z" fill="#E8EAEC" style="fill:#E8EAEC;fill:color(display-p3 0.9098 0.9176 0.9255);fill-opacity:1;"/>
<path d="M872.753 158.977L873.465 158.342C873.667 163.139 874.223 173.607 873.308 178.041C873.008 176.533 872.82 161.511 872.753 158.977Z" fill="#95969A" style="fill:#95969A;fill:color(display-p3 0.5843 0.5882 0.6039);fill-opacity:1;"/>
<path d="M1257.57 158.389C1262.03 158.39 1271.99 158.61 1276.05 158.096C1275.65 164.017 1275.85 171.951 1275.85 178.055L1257.75 178.02L1257.57 158.389Z" fill="#E8EAEC" style="fill:#E8EAEC;fill:color(display-p3 0.9098 0.9176 0.9255);fill-opacity:1;"/>
<path d="M1129.08 158.446C1132.69 158.416 1145.51 157.772 1147.55 159.37C1147.28 165.065 1147.44 172.2 1147.42 178.005L1129.13 178.081C1129.25 171.537 1129.24 164.99 1129.08 158.446Z" fill="#E8EAEC" style="fill:#E8EAEC;fill:color(display-p3 0.9098 0.9176 0.9255);fill-opacity:1;"/>
<path d="M1053.2 158.459C1075.11 158.396 1101.64 159.097 1123.2 158.232C1123.01 160.132 1122.8 161.143 1122.39 163.013C1121.55 163.49 1060.01 163.94 1054.82 163.443C1053 161.693 1053.52 161.473 1053.2 158.459Z" fill="#E8EAEC" style="fill:#E8EAEC;fill:color(display-p3 0.9098 0.9176 0.9255);fill-opacity:1;"/>
<path d="M1181.02 160.698C1181.31 160.028 1181.69 158.854 1182.52 158.811C1191.79 158.334 1247 157.711 1251.41 159.07C1250.87 161.773 1251.32 161.943 1249.71 163.459C1242.29 163.455 1183.57 164.013 1181.71 162.752L1181.02 160.698Z" fill="#E8EAEC" style="fill:#E8EAEC;fill:color(display-p3 0.9098 0.9176 0.9255);fill-opacity:1;"/>
<path d="M867.81 175.939C868.275 171.365 866.558 160.91 869.94 158.478L872.288 158.992C872.235 163.481 872.512 174.04 871.08 177.569L869.94 178.091C868.095 176.988 868.74 177.723 867.81 175.939Z" fill="#E8EAEC" style="fill:#E8EAEC;fill:color(display-p3 0.9098 0.9176 0.9255);fill-opacity:1;"/>
<path d="M995.895 158.993L999.968 157.954C1000.02 162.319 1000.75 174.191 997.98 177.265C995.047 173.957 995.978 163.775 995.895 158.993Z" fill="#E8EAEC" style="fill:#E8EAEC;fill:color(display-p3 0.9098 0.9176 0.9255);fill-opacity:1;"/>
<path d="M1304.32 158.067C1305.46 158.274 1306.99 158.273 1307.31 159.05C1309.06 163.277 1307.73 171.224 1308.14 175.941L1307.89 177.175L1306.18 177.745L1306.67 178.568L1307.2 177.891L1305.46 177.909C1303.41 173.958 1304.19 162.907 1304.32 158.067Z" fill="#E8EAEC" style="fill:#E8EAEC;fill:color(display-p3 0.9098 0.9176 0.9255);fill-opacity:1;"/>
<path d="M1048.21 158.098L1052.43 158.449C1051.61 164.657 1053.5 174.5 1050.3 178.704L1049.87 178.391L1051.04 177.886L1049.74 178.191C1047.73 173.548 1048.16 163.373 1048.21 158.098Z" fill="#E8EAEC" style="fill:#E8EAEC;fill:color(display-p3 0.9098 0.9176 0.9255);fill-opacity:1;"/>
<path d="M1124.14 158.187L1128.35 158.448C1127.55 164.752 1128.7 170.418 1127.65 177.186L1126.3 177.97L1125.12 177.487C1123.53 173.532 1124.08 162.908 1124.14 158.187Z" fill="#E8EAEC" style="fill:#E8EAEC;fill:color(display-p3 0.9098 0.9176 0.9255);fill-opacity:1;"/>
<path d="M1252.28 159.186C1253.47 158.673 1255.07 158.3 1256.35 157.94C1256.39 162.757 1256.95 173.189 1255.3 177.171L1254.19 177.917L1253.05 177.391C1251.82 171.027 1253.07 165.294 1252.28 159.186Z" fill="#E8EAEC" style="fill:#E8EAEC;fill:color(display-p3 0.9098 0.9176 0.9255);fill-opacity:1;"/>
<path d="M1176.89 158.037L1179.66 158.712L1180.52 160.566C1179.89 165.457 1181.14 174.237 1178.9 178.336L1177.87 177.709C1176.28 173.596 1176.73 162.776 1176.89 158.037Z" fill="#E8EAEC" style="fill:#E8EAEC;fill:color(display-p3 0.9098 0.9176 0.9255);fill-opacity:1;"/>
<path d="M920.07 158.253L923.235 158.668C923.295 162.367 923.895 173.806 921.855 176.544C919.223 173.824 920.01 162.337 920.07 158.253Z" fill="#E8EAEC" style="fill:#E8EAEC;fill:color(display-p3 0.9098 0.9176 0.9255);fill-opacity:1;"/>
<path d="M54.4472 157.653L55.4757 158.295C61.2108 158.379 67.5145 158.639 73.1881 158.143L74.124 158.43C81.0983 158.42 94.1085 158.004 100.606 158.583L102.247 158.175C103.351 158.372 104.854 158.517 105.779 159.004L106.515 163.341C123.973 162.218 144.558 163.407 162.346 162.957C166.952 162.841 187.98 162.802 190.904 163.382L192.215 162.186L192.589 162.115C192.633 160.226 192.571 160.346 193.544 158.737L196.321 158.072L197.904 158.504C202.373 158.466 213.106 158.628 217.086 158.116L218.116 158.436C224.796 158.437 237.978 158.793 244.123 158.099L245.221 158.101C248.034 158.673 247.484 158.134 249.209 159.86L249.768 159.603C249.872 159.498 249.966 159.379 250.081 159.287C251.83 157.897 331.775 157.637 338.863 158.898L339.546 158.753L343.522 157.985L344.885 158.484L359.369 158.382L360.152 159.013L360.698 159.003C363.916 157.784 374.662 158.48 378.679 158.678L380.65 158.252L383.23 158.682C384.438 160.438 384.139 161.33 384.051 163.601L384.971 163.292C391.28 164.148 461.744 163.814 464.411 162.26L464.758 162.161C464.689 158.696 465.348 158.908 468.073 157.586L470.09 158.451L487.907 158.353L488.742 158.617C492.814 158.391 513.349 158.011 516.917 158.715L518.559 158.173L521.242 158.695C521.756 159.877 521.931 160.094 522.102 161.358L522.486 161.481C523.484 162.669 523.506 163.189 524.662 163.253C546.815 164.471 572.15 162.37 594.039 163.705L593.921 164.391L546.728 164.438C542.231 164.43 526.401 164.172 522.859 164.838L522.91 179.756L463.907 179.806L463.883 164.769L385.582 164.844L385.598 179.768C370.207 179.792 353.769 180.126 338.471 179.822C338.415 174.979 338.269 169.878 338.332 165.058C329.282 165.964 304.102 165.159 294.1 165.272C285.445 165.37 257.67 165.832 250.424 164.756C250.389 169.604 250.471 174.969 250.285 179.767L191.871 179.804C191.814 174.903 191.659 169.688 191.794 164.814C163.726 164.9 135.109 165.136 107.08 164.81C107.065 169.741 107.113 174.841 107.031 179.757L49.0573 179.792C48.9844 174.92 48.841 169.895 48.9349 165.036C37.8236 166.045 12.1294 165.25 0 165.224V164.467V163.547V158.418C5.83625 158.393 45.4706 157.875 49.3851 158.938L50.2321 158.941L54.4472 157.653Z" fill="#515152" style="fill:#515152;fill:color(display-p3 0.3176 0.3176 0.3216);fill-opacity:1;"/>
<path d="M488.742 158.617C492.814 158.391 513.349 158.011 516.917 158.715C516.42 165.074 516.619 171.713 516.673 178.108L488.987 178.069C489.099 171.584 489.017 165.097 488.742 158.617Z" fill="#E8EAEC" style="fill:#E8EAEC;fill:color(display-p3 0.9098 0.9176 0.9255);fill-opacity:1;"/>
<path d="M74.124 158.43C81.0983 158.42 94.1085 158.004 100.606 158.583C100.283 164.478 100.467 172.111 100.454 178.133L74.2371 178.096C74.2495 171.541 74.2118 164.985 74.124 158.43Z" fill="#E8EAEC" style="fill:#E8EAEC;fill:color(display-p3 0.9098 0.9176 0.9255);fill-opacity:1;"/>
<path d="M218.116 158.436C224.796 158.437 237.978 158.793 244.123 158.099C243.622 163.52 243.831 172.46 243.811 178.158L218.169 178.038L218.116 158.436Z" fill="#E8EAEC" style="fill:#E8EAEC;fill:color(display-p3 0.9098 0.9176 0.9255);fill-opacity:1;"/>
<path d="M249.768 159.603C249.872 159.498 249.966 159.379 250.081 159.287C251.83 157.897 331.775 157.637 338.863 158.898C338.355 161.403 338.681 162.049 337.063 163.541L276.257 163.46C273.029 163.461 253.065 163.677 250.88 163.229C250.411 161.868 250.084 161.024 249.768 159.603Z" fill="#E8EAEC" style="fill:#E8EAEC;fill:color(display-p3 0.9098 0.9176 0.9255);fill-opacity:1;"/>
<path d="M197.904 158.504C202.373 158.466 213.106 158.628 217.086 158.116C216.651 164.485 216.872 171.673 216.926 178.135L197.967 178.081C198.125 171.671 197.967 164.945 197.904 158.504Z" fill="#E8EAEC" style="fill:#E8EAEC;fill:color(display-p3 0.9098 0.9176 0.9255);fill-opacity:1;"/>
<path d="M360.698 159.003C363.916 157.784 374.662 158.48 378.679 158.678C379 165.251 378.97 171.705 378.978 178.282C374.49 177.704 365.401 178.013 360.865 178.273C360.981 171.849 360.925 165.424 360.698 159.003Z" fill="#E8EAEC" style="fill:#E8EAEC;fill:color(display-p3 0.9098 0.9176 0.9255);fill-opacity:1;"/>
<path d="M470.09 158.451L487.907 158.353C487.788 164.961 487.571 171.683 487.815 178.278C482.323 177.748 475.633 177.974 470.122 178.195L470.09 158.451Z" fill="#E8EAEC" style="fill:#E8EAEC;fill:color(display-p3 0.9098 0.9176 0.9255);fill-opacity:1;"/>
<path d="M55.4757 158.295C61.2108 158.379 67.5145 158.639 73.1881 158.143C72.6382 164.667 72.8881 171.511 72.9745 178.078L55.4603 178.086L55.4757 158.295Z" fill="#E8EAEC" style="fill:#E8EAEC;fill:color(display-p3 0.9098 0.9176 0.9255);fill-opacity:1;"/>
<path d="M344.885 158.484L359.369 158.382L360.152 159.013C360.116 162.859 360.242 175.037 359.798 178.278C353.928 177.89 350.764 177.951 344.983 178.243C345.029 171.656 344.997 165.07 344.885 158.484Z" fill="#E8EAEC" style="fill:#E8EAEC;fill:color(display-p3 0.9098 0.9176 0.9255);fill-opacity:1;"/>
<path d="M359.369 158.382L360.152 159.013C360.116 162.859 360.242 175.037 359.798 178.278C358.844 173.72 359.279 163.339 359.369 158.382Z" fill="#95969A" style="fill:#95969A;fill:color(display-p3 0.5843 0.5882 0.6039);fill-opacity:1;"/>
<path d="M0 158.418C5.83625 158.393 45.4706 157.875 49.3851 158.938C48.8762 161.44 49.2235 162.127 47.5742 163.407C31.7095 163.824 15.8266 163.266 0 163.547V158.418Z" fill="#E8EAEC" style="fill:#E8EAEC;fill:color(display-p3 0.9098 0.9176 0.9255);fill-opacity:1;"/>
<path d="M245.221 158.101C248.034 158.673 247.484 158.134 249.209 159.86C248.89 164.368 249.859 174.673 246.844 177.984C244.554 174.37 245.144 162.676 245.221 158.101Z" fill="#E8EAEC" style="fill:#E8EAEC;fill:color(display-p3 0.9098 0.9176 0.9255);fill-opacity:1;"/>
<path d="M464.758 162.161C464.689 158.696 465.348 158.908 468.073 157.586C469.056 161.462 469.724 175.085 467.309 178.158C465.681 177.877 466.4 178.252 465.266 176.696C464.591 171.421 465.321 166.011 464.758 162.161Z" fill="#E8EAEC" style="fill:#E8EAEC;fill:color(display-p3 0.9098 0.9176 0.9255);fill-opacity:1;"/>
<path d="M50.2321 158.941L54.4472 157.653C54.2447 165.184 54.5077 169.331 52.8818 176.772L52.0861 177.506C49.6033 171.794 50.5799 164.944 50.2321 158.941Z" fill="#E8EAEC" style="fill:#E8EAEC;fill:color(display-p3 0.9098 0.9176 0.9255);fill-opacity:1;"/>
<path d="M339.546 158.753L343.522 157.985C343.628 163.409 344.156 173.454 342.273 178.31L341.27 178.664L341.74 178.925C338.444 174.796 340.384 164.405 339.546 158.753Z" fill="#E8EAEC" style="fill:#E8EAEC;fill:color(display-p3 0.9098 0.9176 0.9255);fill-opacity:1;"/>
<path d="M102.247 158.175C103.351 158.372 104.854 158.517 105.779 159.004C105.843 163.691 106.517 173.857 103.866 177.497L102.975 176.554C101.446 169.35 102 165.506 102.247 158.175Z" fill="#E8EAEC" style="fill:#E8EAEC;fill:color(display-p3 0.9098 0.9176 0.9255);fill-opacity:1;"/>
<path d="M518.559 158.173L521.242 158.695C521.756 159.877 521.931 160.094 522.102 161.358C521.201 166.847 522.469 173.241 521.23 177.681L519.633 177.835C516.869 174.937 517.966 162.233 518.559 158.173Z" fill="#E8EAEC" style="fill:#E8EAEC;fill:color(display-p3 0.9098 0.9176 0.9255);fill-opacity:1;"/>
<path d="M192.589 162.115C192.633 160.226 192.571 160.346 193.544 158.737L196.321 158.072C196.484 163.328 196.995 172.886 195.277 177.727L194.348 178.526C191.54 172.973 193.433 167.26 192.589 162.115Z" fill="#E8EAEC" style="fill:#E8EAEC;fill:color(display-p3 0.9098 0.9176 0.9255);fill-opacity:1;"/>
<path d="M380.65 158.252L383.23 158.682C384.438 160.438 384.139 161.33 384.051 163.601C384.106 167.57 384.741 173.849 382.241 176.725L381.32 175.82C379.652 169.217 380.287 165.058 380.65 158.252Z" fill="#E8EAEC" style="fill:#E8EAEC;fill:color(display-p3 0.9098 0.9176 0.9255);fill-opacity:1;"/>
<path d="M250.424 164.756C257.413 164.061 336.458 164.201 338.332 165.058C329.282 165.964 304.102 165.159 294.1 165.272C285.445 165.37 257.67 165.832 250.424 164.756Z" fill="#95969A" style="fill:#95969A;fill:color(display-p3 0.5843 0.5882 0.6039);fill-opacity:1;"/>
<path d="M106.515 163.341C123.973 162.218 144.558 163.407 162.346 162.957C166.952 162.841 187.98 162.802 190.904 163.382C188.743 164.113 111.641 164.1 106.515 163.341Z" fill="#95969A" style="fill:#95969A;fill:color(display-p3 0.5843 0.5882 0.6039);fill-opacity:1;"/>
<path d="M0 164.467C5.19379 164.451 46.3857 163.829 48.9349 165.036C37.8236 166.045 12.1294 165.25 0 165.224V164.467Z" fill="#95969A" style="fill:#95969A;fill:color(display-p3 0.5843 0.5882 0.6039);fill-opacity:1;"/>
<path d="M487.815 178.278C482.323 177.748 475.633 177.974 470.122 178.195C474.754 178.897 483.117 178.85 487.815 178.278Z" fill="#6E6F70" style="fill:#6E6F70;fill:color(display-p3 0.4314 0.4353 0.4392);fill-opacity:1;"/>
<path d="M378.978 178.282C374.49 177.704 365.401 178.013 360.865 178.273C364.621 178.663 375.32 178.943 378.978 178.282Z" fill="#6E6F70" style="fill:#6E6F70;fill:color(display-p3 0.4314 0.4353 0.4392);fill-opacity:1;"/>
<path d="M359.798 178.278C353.928 177.89 350.764 177.951 344.983 178.243C348.219 178.814 356.55 178.825 359.798 178.278Z" fill="#6E6F70" style="fill:#6E6F70;fill:color(display-p3 0.4314 0.4353 0.4392);fill-opacity:1;"/>
<path d="M600.424 158.497L601.135 158.415C605.18 158.399 615.992 158.135 619.484 158.827L620.912 158.798C623.659 158.133 642.679 158.356 646.537 158.365L647.37 159.06L647.917 159.038L651.677 158.013L652.896 158.44C661.936 158.423 732.406 157.673 734.899 159.32L735.628 160.718L736.374 160.457C736.771 158.969 736.423 159.642 737.606 158.463L740.259 159.013L740.812 159.034L741.496 158.322C745.323 158.357 756.773 158.219 760.035 158.661L761.1 158.72C766.732 157.976 781.545 158.351 787.852 158.353L788.753 158.601L792.93 158.026L793.807 158.374C794.175 160.971 793.8 161.635 795.36 163.276C817.507 164.678 844.298 162.086 866.333 163.65L866.273 164.576C845.603 165.837 815.708 164.927 794.28 164.914L794.273 179.826C775.14 179.83 753.923 180.244 734.941 179.807L734.925 164.841C707.926 164.95 680.204 165.214 653.242 164.847L653.26 179.744C638.977 179.806 607.702 180.793 594.601 179.579L599.338 178.135C600.413 175.636 599.839 163.456 600.424 158.497Z" fill="#515152" style="fill:#515152;fill:color(display-p3 0.3176 0.3176 0.3216);fill-opacity:1;"/>
<path d="M761.1 158.72C766.732 157.976 781.545 158.351 787.852 158.353C787.83 164.784 787.673 171.725 787.823 178.109L761.287 178.053C761.347 171.741 761.565 164.985 761.1 158.72Z" fill="#E8EAEC" style="fill:#E8EAEC;fill:color(display-p3 0.9098 0.9176 0.9255);fill-opacity:1;"/>
<path d="M620.912 158.798C623.659 158.133 642.679 158.356 646.537 158.365L647.37 159.06C647.338 162.178 647.379 175.868 646.951 178.111L621.04 178.004C621.113 171.601 621.07 165.199 620.912 158.798Z" fill="#E8EAEC" style="fill:#E8EAEC;fill:color(display-p3 0.9098 0.9176 0.9255);fill-opacity:1;"/>
<path d="M646.537 158.365L647.37 159.06C647.338 162.178 647.379 175.868 646.951 178.111C646.175 172.883 646.487 163.949 646.537 158.365Z" fill="#95969A" style="fill:#95969A;fill:color(display-p3 0.5843 0.5882 0.6039);fill-opacity:1;"/>
<path d="M652.896 158.44C661.936 158.423 732.406 157.673 734.899 159.32L735.628 160.718L734.749 162.748C733.048 163.941 661.834 163.382 654.115 163.378C652.992 162.242 653.134 160.36 652.896 158.44Z" fill="#E8EAEC" style="fill:#E8EAEC;fill:color(display-p3 0.9098 0.9176 0.9255);fill-opacity:1;"/>
<path d="M741.496 158.322C745.323 158.357 756.773 158.219 760.035 158.661C759.863 165.421 759.712 171.316 760.042 178.07L741.268 177.998C741.049 176.692 740.921 161.798 740.812 159.034L741.496 158.322Z" fill="#E8EAEC" style="fill:#E8EAEC;fill:color(display-p3 0.9098 0.9176 0.9255);fill-opacity:1;"/>
<path d="M740.812 159.034L741.496 158.322C741.703 162.983 742.216 173.691 741.268 177.998C741.049 176.692 740.921 161.798 740.812 159.034Z" fill="#95969A" style="fill:#95969A;fill:color(display-p3 0.5843 0.5882 0.6039);fill-opacity:1;"/>
<path d="M601.135 158.415C605.18 158.399 615.992 158.135 619.484 158.827L619.443 177.985L601.251 178.018C601.107 171.58 601.168 164.877 601.135 158.415Z" fill="#E8EAEC" style="fill:#E8EAEC;fill:color(display-p3 0.9098 0.9176 0.9255);fill-opacity:1;"/>
<path d="M788.753 158.601L792.93 158.026C792.945 162.346 793.508 174.213 790.838 177.196C788.055 173.056 789.045 163.57 788.753 158.601Z" fill="#E8EAEC" style="fill:#E8EAEC;fill:color(display-p3 0.9098 0.9176 0.9255);fill-opacity:1;"/>
<path d="M647.917 159.038L651.677 158.013C651.793 162.219 652.675 174.249 649.996 177.209C647.149 173.877 648.034 163.804 647.917 159.038Z" fill="#E8EAEC" style="fill:#E8EAEC;fill:color(display-p3 0.9098 0.9176 0.9255);fill-opacity:1;"/>
<path d="M736.374 160.457C736.771 158.969 736.423 159.642 737.606 158.463L740.259 159.013C740.275 164.976 740.631 170.588 738.98 176.314L738.127 176.823C735.558 170.852 736.748 166.574 736.374 160.457Z" fill="#E8EAEC" style="fill:#E8EAEC;fill:color(display-p3 0.9098 0.9176 0.9255);fill-opacity:1;"/>
<path d="M1516.37 158.482L1533.71 158.42C1533.49 164.986 1533.2 171.08 1533.65 177.646C1529.73 178.43 1520.81 178.105 1516.45 178.075C1516.48 171.544 1516.45 165.013 1516.37 158.482Z" fill="#E8EAEC" style="fill:#E8EAEC;fill:color(display-p3 0.9098 0.9176 0.9255);fill-opacity:1;"/>
<path d="M1510.22 158.281L1511.17 158.304L1515.16 158.202L1516.37 158.482C1516.45 165.013 1516.48 171.544 1516.45 178.075C1520.81 178.105 1529.73 178.43 1533.65 177.646L1536 178.554V179.688L1509.78 179.933L1509.73 164.604C1491.74 165.544 1456.61 165.449 1438.52 164.607L1438.53 163.598C1459.84 162.088 1487.74 165.017 1508.88 163.282C1510.18 161.669 1509.92 160.594 1510.22 158.281Z" fill="#515152" style="fill:#515152;fill:color(display-p3 0.3176 0.3176 0.3216);fill-opacity:1;"/>
<path d="M1511.17 158.304L1515.16 158.202C1514.8 164.053 1515.88 172.478 1513.12 177.842C1510.66 175.416 1511.14 161.995 1511.17 158.304Z" fill="#E8EAEC" style="fill:#E8EAEC;fill:color(display-p3 0.9098 0.9176 0.9255);fill-opacity:1;"/>
<path d="M522.859 164.838C526.401 164.172 542.231 164.43 546.728 164.438L593.921 164.391L594.216 165.193L549.922 165.279C541.862 165.289 530.695 165.582 522.859 164.838Z" fill="#95969A" style="fill:#95969A;fill:color(display-p3 0.5843 0.5882 0.6039);fill-opacity:1;"/>
</svg>
